<?xml version="1.0" encoding="UTF-8" standalone="no"?>
<!-- Created with Inkscape (http://www.inkscape.org/) -->

<svg
   xmlns:dc="http://purl.org/dc/elements/1.1/"
   xmlns:cc="http://creativecommons.org/ns#"
   xmlns:rdf="http://www.w3.org/1999/02/22-rdf-syntax-ns#"
   xmlns:svg="http://www.w3.org/2000/svg"
   xmlns="http://www.w3.org/2000/svg"
   xmlns:sodipodi="http://sodipodi.sourceforge.net/DTD/sodipodi-0.dtd"
   xmlns:inkscape="http://www.inkscape.org/namespaces/inkscape"
   version="1.1"
   id="svg4179"
   width="85.333336"
   height="85.333336"
   viewBox="0 0 85.333336 85.333336"
   sodipodi:docname="goldfish.svg"
   inkscape:version="0.92.4 5da689c313, 2019-01-14">
  <metadata
     id="metadata4185">
    <rdf:RDF>
      <cc:Work
         rdf:about="">
        <dc:format>image/svg+xml</dc:format>
        <dc:type
           rdf:resource="http://purl.org/dc/dcmitype/StillImage" />
        <dc:title></dc:title>
      </cc:Work>
    </rdf:RDF>
  </metadata>
  <defs
     id="defs4183" />
  <sodipodi:namedview
     pagecolor="#ffffff"
     bordercolor="#666666"
     borderopacity="1"
     objecttolerance="10"
     gridtolerance="10"
     guidetolerance="10"
     inkscape:pageopacity="0"
     inkscape:pageshadow="2"
     inkscape:window-width="948"
     inkscape:window-height="953"
     id="namedview4181"
     showgrid="false"
     inkscape:zoom="2.7656249"
     inkscape:cx="-2.8926555"
     inkscape:cy="42.666668"
     inkscape:window-x="0"
     inkscape:window-y="27"
     inkscape:window-maximized="0"
     inkscape:current-layer="svg4179" />
  <g
     id="g4189">
    <path
       style="fill:#fdfdfd;stroke-width:1.33333337"
       d="M 0,42.666668 V 0 H 42.666668 85.333336 V 42.666668 85.333336 H 42.666668 0 Z"
       id="path4321"
       inkscape:connector-curvature="0" />
    <path
       style="fill:#fdf8f6;stroke-width:1.33333337"
       d="M 18.000001,64.133535 C 9.6086916,60.240122 3.8199132,53.308432 3.0179574,46.193501 2.1025269,38.071825 3.237916,34.29409 8.3411624,28.481814 14.451372,21.52267 21.426055,18.725233 32.666668,18.725233 c 10.016803,0 18.137398,2.745498 23.253792,7.861893 l 2.823197,2.823196 4.420693,-3.371827 c 7.741682,-5.904868 18.168986,-3.48656 18.168986,4.213765 0,1.489922 -1.516372,4.943448 -3.369715,7.674501 l -3.369715,4.965552 3.369715,2.650618 c 3.945934,3.103872 4.620208,10.349435 1.274476,13.695166 -2.612659,2.61266 -9.499415,2.675994 -13.904762,0.127878 -1.833333,-1.060428 -4.119152,-2.329521 -5.079597,-2.820208 -0.999345,-0.51056 -3.280538,0.577415 -5.333334,2.543642 -1.972888,1.889689 -5.817798,4.367628 -8.544244,5.506529 -6.943609,2.900512 -21.644521,2.660953 -28.376159,-0.462403 z"
       id="path4319"
       inkscape:connector-curvature="0" />
    <path
       style="fill:#fcf4f2;stroke-width:1.33333337"
       d="M 17.557845,63.195494 C -1.0678023,53.913942 -2.212045,34.167009 15.250751,23.380506 c 5.900528,-3.644667 7.622803,-4.043573 17.317374,-4.010989 11.42507,0.0384 18.633819,2.586133 23.950015,8.464467 l 2.518139,2.784408 4.528256,-3.975863 c 2.847662,-2.500279 5.995579,-3.975862 8.481862,-3.975862 3.85866,0 9.286939,3.935415 9.286939,6.732881 0,1.941544 -3.897367,9.449976 -6.367436,12.26712 -1.290908,1.472297 -1.477587,2.333333 -0.505882,2.333333 0.846992,0 2.739984,1.2 4.206651,2.666667 6.015016,6.015016 0.939933,15.600851 -7.531795,14.226079 -2.510711,-0.407433 -6.146003,-1.892518 -8.078425,-3.300189 l -3.513495,-2.559403 -5.802848,4.429414 c -10.678578,8.151142 -24.46233,9.573212 -36.182261,3.732925 z"
       id="path4317"
       inkscape:connector-curvature="0" />
    <path
       style="fill:#fcf0ee;stroke-width:1.33333337"
       d="M 17.539535,62.559223 C 4.7481773,56.167307 0.03003868,46.224691 4.5990485,35.28951 8.4402329,26.096262 20.33039,18.666667 31.201873,18.666667 c 8.415868,0 18.657778,3.509574 23.53349,8.064171 4.279678,3.997816 4.346208,4.011688 7.125659,1.485614 6.923755,-6.292582 11.53373,-6.942914 16.192371,-2.284273 2.826238,2.826237 3.075176,3.767874 1.850577,7.000001 -0.778213,2.053968 -2.606537,5.006764 -4.062941,6.561768 l -2.648005,2.827279 4.206277,4.206278 c 3.406314,3.406314 4.039722,4.897235 3.330512,7.839387 -1.809973,7.508665 -8.109172,8.944738 -15.936294,3.63311 -2.701568,-1.833334 -5.373041,-3.333334 -5.936608,-3.333334 -0.563567,0 -2.723356,1.773051 -4.799532,3.940112 -8.405875,8.773842 -23.582259,10.416431 -36.517844,3.952443 z"
       id="path4315"
       inkscape:connector-curvature="0" />
    <path
       style="fill:#fcedea;stroke-width:1.33333337"
       d="M 23.922135,65.481529 C 9.105712,60.641783 0.47973115,48.666522 4.0398207,37.879344 7.9068584,26.162105 18.456594,19.370414 32.666668,19.449999 c 10.006803,0.05604 15.826019,2.198582 22.227802,8.183899 l 3.561133,3.329467 4.85607,-3.703904 c 7.627107,-5.817479 16.68833,-4.341835 16.68833,2.717737 0,1.641207 -1.544394,5.259803 -3.431986,8.041326 l -3.431987,5.057313 3.598654,2.869466 c 5.609976,4.473239 4.320755,13.268198 -2.068015,14.107812 -4.858275,0.638476 -8.06045,-0.276138 -11.705704,-3.343419 l -3.910306,-3.290304 -3.191995,3.420062 c -1.755598,1.881035 -5.434613,4.5701 -8.175589,5.9757 -5.628382,2.886292 -18.623374,4.344548 -23.76094,2.666375 z"
       id="path4313"
       inkscape:connector-curvature="0" />
    <path
       style="fill:#fbe9e5;stroke-width:1.33333337"
       d="M 18.676187,63.209358 C 9.2043668,59.101847 3.9968851,51.715494 4.0049843,42.399548 4.0115091,34.894453 7.7535701,28.943126 15.591543,23.972431 c 5.483438,-3.477493 7.482615,-3.97243 16.045657,-3.97243 10.836996,0 17.698639,2.228205 23.25727,7.552412 l 3.561133,3.410952 4.564722,-3.481683 c 2.885681,-2.201016 6.259485,-3.481681 9.172199,-3.481681 8.470107,0 10.164203,5.488383 4.342222,14.06755 l -3.465257,5.106341 3.465257,2.524263 c 3.784103,2.756528 4.811859,9.755244 1.865256,12.701847 -2.72394,2.72394 -10.463181,1.868313 -15.101611,-1.66959 l -4.286653,-3.26959 -3.172535,3.445481 c -5.213091,5.661596 -12.736584,8.371174 -23.172535,8.34556 -5.34766,-0.01307 -11.322105,-0.885348 -13.990481,-2.042505 z"
       id="path4311"
       inkscape:connector-curvature="0" />
    <path
       style="fill:#fbe5e0;stroke-width:1.33333337"
       d="M 16.709065,61.635523 C 3.706876,54.499683 0.05500078,41.846017 7.8801872,31.043661 13.251503,23.628775 21.261715,20.000001 32.258134,20.000001 c 9.921997,0 16.286553,2.218346 22.818206,7.953215 l 4.508946,3.958905 3.790147,-3.95606 c 5.634748,-5.88141 16.62457,-4.896168 16.62457,1.490399 0,3.310481 -3.097154,9.477725 -5.947733,11.843496 -1.892721,1.570819 -1.684868,2.029189 1.912084,4.216625 3.186704,1.937951 4.035649,3.383938 4.035649,6.873823 0,2.430779 -0.720001,5.139598 -1.600001,6.019598 -2.610781,2.610781 -9.441735,1.83052 -14.587732,-1.666276 L 59.005513,53.46745 56.000239,56.666416 C 47.286844,65.941399 28.81208,68.277881 16.709065,61.635523 Z"
       id="path4309"
       inkscape:connector-curvature="0" />
    <path
       style="fill:#fae2dc;stroke-width:1.33333337"
       d="M 16.475642,61.375127 C -0.17570575,51.824859 -0.37006684,34.293428 16.064981,24.333334 c 6.147269,-3.725415 8.3745,-4.331507 15.876037,-4.320308 9.514123,0.0142 19.919529,3.869983 24.577122,9.107191 l 2.518139,2.831508 4.528256,-3.975863 c 2.79391,-2.453085 6.006033,-3.975861 8.386625,-3.975861 4.212952,0 8.048843,2.988704 8.048843,6.271193 0,2.64783 -5.153653,11.062141 -6.775413,11.062141 -2.377314,0 -1.182893,2.238369 2.144724,4.019254 4.040322,2.162315 5.515349,6.978573 3.495162,11.412402 -2.046011,4.490504 -9.225178,4.442227 -14.621315,-0.09832 -4.745408,-3.992999 -5.787298,-4.103649 -7.830701,-0.831641 -0.859282,1.37593 -4.721417,4.075931 -8.582521,6 -10.226526,5.096093 -21.967424,4.923879 -31.354297,-0.4599 z"
       id="path4307"
       inkscape:connector-curvature="0" />
    <path
       style="fill:#fadbd4;stroke-width:1.33333337"
       d="M 19.333334,62.800202 C 8.3517089,57.70493 2.1900494,47.392933 4.5377957,38.038768 5.8793903,32.693429 14.219167,24.391457 20.754473,21.895601 c 11.1838,-4.271132 27.247741,-1.013343 34.710763,7.039392 l 3.098847,3.343711 5.021752,-4.139351 c 5.743419,-4.734212 10.947077,-5.303778 14.327694,-1.568238 2.784843,3.077217 1.994103,6.416151 -2.89574,12.2274 l -3.464613,4.117458 4.223413,3.305319 c 4.73507,3.705748 5.50944,8.302207 1.991373,11.820274 -2.854264,2.854264 -10.322861,1.821239 -14.378423,-1.988763 -3.765501,-3.537505 -4.934208,-3.432903 -8.823785,0.789757 -7.618666,8.271086 -24.202476,11.075333 -35.23242,5.957642 z"
       id="path4305"
       inkscape:connector-curvature="0" />
    <path
       style="fill:#f9d3c9;stroke-width:1.33333337"
       d="M 18.502843,61.998511 C 3.629847,54.251351 -0.14661947,41.00078 9.4147635,30.110966 20.449158,17.543485 41.760804,16.676806 54.160686,28.291286 l 4.160684,3.89715 6.055347,-4.268203 c 6.710543,-4.730027 11.733785,-4.696472 14.298377,0.09551 1.583943,2.959625 0.230792,6.557532 -4.364736,11.605444 l -2.689741,2.954525 4.189692,3.913759 c 2.304332,2.152568 4.189694,4.873034 4.189694,6.04548 0,2.72268 -4.700758,7.465054 -7.399547,7.465054 -2.751796,0 -9.038555,-3.314744 -11.179582,-5.894523 -1.515461,-1.826019 -2.399479,-1.470705 -7.490655,3.010728 -10.016938,8.817262 -24.137231,10.763202 -35.427376,4.882304 z"
       id="path4303"
       inkscape:connector-curvature="0" />
    <path
       style="fill:#f8cdc2;stroke-width:1.33333337"
       d="M 19.278847,62.262659 C 11.284248,58.438604 5.7651339,52.324258 4.5732748,45.971101 3.2273242,38.796568 8.3667799,29.676174 16.574615,24.673718 c 5.739683,-3.498181 7.771576,-3.994128 16.000001,-3.905291 10.331849,0.111547 17.560735,2.926616 23.296611,9.072161 l 3.204558,3.433434 5.132616,-4.63701 c 5.637988,-5.093585 6.072029,-5.224789 11.038135,-3.336679 5.202551,1.978007 4.282966,8.453948 -2.214594,15.595732 l -2.634825,2.896064 4.040284,2.089314 c 6.353215,3.285375 7.043363,9.852011 1.355372,12.896131 -3.143005,1.682085 -7.15048,0.559489 -12.620236,-3.535251 l -4.160799,-3.114835 -3.172535,3.399348 c -8.619108,9.23531 -25.018393,12.256689 -36.560356,6.735823 z"
       id="path4301"
       inkscape:connector-curvature="0" />
    <path
       style="fill:#f8c6b9;stroke-width:1.33333337"
       d="M 17.209713,60.900691 C 1.476343,52.60262 1.1408177,33.69493 16.566514,24.65487 27.855142,18.039294 48.718728,21.046201 56.031295,30.342624 l 2.708342,3.443098 4.360325,-4.226194 c 7.2663,-7.042774 17.042265,-4.953465 14.994707,3.204654 -0.478379,1.906012 -2.345379,4.941077 -4.148889,6.744587 -1.803511,1.803511 -3.279111,3.53643 -3.279111,3.850931 0,0.314501 1.834245,1.520345 4.0761,2.679655 3.583559,1.85313 4.026625,2.70312 3.666667,7.03424 -0.382858,4.606645 -0.721974,4.952552 -5.224578,5.329207 -3.602441,0.301353 -5.833631,-0.454202 -8.85914,-3 -4.999605,-4.206891 -6.139927,-4.235739 -8.769916,-0.22187 -5.745631,8.768942 -26.652108,11.887382 -38.346089,5.719759 z"
       id="path4299"
       inkscape:connector-curvature="0" />
    <path
       style="fill:#f7beb0;stroke-width:1.33333337"
       d="M 19.250086,61.610781 C 8.6778999,55.714107 5.3333335,51.090956 5.3333335,42.373835 c 0,-5.410906 0.7049383,-7.146434 4.6979945,-11.56627 6.417319,-7.103206 11.996711,-9.48014 22.170178,-9.444948 9.809402,0.03393 18.935245,3.509828 23.363338,8.89874 l 2.898175,3.527029 4.814887,-4.227526 c 5.025299,-4.41227 10.887032,-5.529257 13.788763,-2.627526 2.641105,2.641106 1.836321,6.038056 -2.637731,11.133719 l -4.237732,4.82651 4.237732,3.316522 c 6.712886,5.253625 5.180995,12.456583 -2.649208,12.456583 -2.18622,0 -5.520923,-1.61026 -8.192641,-3.95606 l -4.505704,-3.95606 -3.874026,4.124191 c -2.130713,2.268305 -6.274024,5.235356 -9.207358,6.593446 -6.976858,3.23018 -21.076022,3.30323 -26.749915,0.138596 z"
       id="path4297"
       inkscape:connector-curvature="0" />
    <path
       style="fill:#f6b7a6;stroke-width:1.33333337"
       d="M 19.321898,61.513359 C 11.044056,57.752816 5.3322662,50.444134 5.3383176,43.620273 5.3567804,22.800674 38.451931,13.104644 54.022679,29.357004 c 2.095261,2.186982 4.233859,3.97633 4.752438,3.97633 0.518578,0 2.869777,-1.8 5.224885,-4 4.669372,-4.361847 10.607274,-5.284703 13.280232,-2.063984 2.03129,2.447555 0.834794,6.263728 -3.626053,11.565143 l -3.494887,4.153438 4.38099,3.575586 c 3.146017,2.567653 4.251138,4.457239 3.920353,6.703199 -0.969257,6.58105 -8.167988,6.945521 -15.490222,0.784267 l -3.901777,-3.283129 -3.867652,4.117538 c -8.338591,8.877346 -24.397537,11.843925 -35.879088,6.627967 z"
       id="path4295"
       inkscape:connector-curvature="0" />
    <path
       style="fill:#f6b29c;stroke-width:1.33333337"
       d="M 18.042398,60.30219 C 1.9961705,51.495726 1.0745269,35.718948 16.028206,25.823071 26.881156,18.64093 44.075523,20.327622 54.08772,29.556544 l 5.462147,5.03483 4.486623,-4.62902 c 4.771937,-4.923389 8.563463,-5.767553 12.611156,-2.807808 2.200624,1.609136 2.293744,2.2966 0.799672,5.903608 -0.93004,2.245318 -2.836157,5.118765 -4.235816,6.385438 -3.526517,3.191455 -3.18535,4.848939 1.553183,7.545811 3.204036,1.823533 3.990263,3.084148 3.658236,5.865517 -0.833851,6.985145 -8.801365,7.554514 -15.26502,1.090859 -1.803511,-1.803511 -3.454179,-3.279111 -3.66815,-3.279111 -0.21397,0 -2.77784,2.272414 -5.697487,5.049807 -9.524643,9.060574 -24.172646,10.939506 -35.749866,4.585715 z"
       id="path4293"
       inkscape:connector-curvature="0" />
    <path
       style="fill:#f5ac9a;stroke-width:1.33333337"
       d="M 18.042398,60.30219 C 0.71254264,50.791247 1.3809074,33.391569 19.415025,24.568298 c 6.231908,-3.048989 8.524701,-3.489897 15.064351,-2.896903 9.050516,0.820672 17.483152,4.75212 21.232312,9.89889 l 2.669484,3.664611 5.479923,-4.95078 c 3.013958,-2.72293 6.635337,-4.950782 8.04751,-4.950782 2.296679,0 6.758064,3.187318 6.758064,4.828118 0,1.556818 -4.017856,8.193516 -5.912084,9.765585 -2.975853,2.469739 -2.586923,4.688624 1.174701,6.701784 5.563782,2.977646 5.979818,9.707297 0.703646,11.381889 -3.017516,0.957721 -11.439957,-2.715999 -12.48795,-5.447023 -1.134749,-2.957111 -4.281534,-2.238001 -6.760147,1.54484 -3.367976,5.140183 -14.59775,9.869016 -23.384834,9.847304 -5.452335,-0.01347 -9.032458,-0.95063 -13.957603,-3.653641 z"
       id="path4291"
       inkscape:connector-curvature="0" />
    <path
       style="fill:#f5aa92;stroke-width:1.33333337"
       d="M 19.009098,60.654103 C 9.9958712,56.076867 6.0000002,50.551851 6.0000002,42.666668 c 0,-8.014234 4.0946048,-13.538314 13.4150248,-18.09837 6.231908,-3.048989 8.524701,-3.489897 15.064351,-2.896903 9.050516,0.820672 17.483152,4.75212 21.232312,9.89889 l 2.669484,3.664611 5.479923,-4.95078 c 5.864994,-5.298671 9.426059,-6.139819 12.591643,-2.974236 2.572523,2.572522 1.55325,6.12308 -3.326986,11.589297 l -3.945359,4.419087 3.076471,2.3404 c 5.701136,4.337092 6.409805,5.107182 6.409805,6.965335 0,1.018707 -0.986253,2.838447 -2.191675,4.043868 -2.782037,2.782038 -7.900781,1.654929 -12.547951,-2.762963 -4.128154,-3.924484 -6.052689,-4.073829 -7.904652,-0.613402 -2.567291,4.797024 -12.791152,9.641267 -21.742127,10.301795 -7.059404,0.520941 -9.311017,0.08759 -15.271166,-2.939194 z"
       id="path4289"
       inkscape:connector-curvature="0" />
    <path
       style="fill:#f4a591;stroke-width:1.33333337"
       d="M 18.937557,60.551938 C 2.3263574,52.274228 1.1233761,35.179466 16.517215,26.158077 c 11.204478,-6.566262 32.073617,-4.024135 38.25744,4.660243 3.212668,4.511777 5.292567,4.84858 7.55639,1.223624 0.901541,-1.443598 3.491588,-3.582648 5.755658,-4.753444 3.768209,-1.948617 4.391079,-1.948806 7.361931,-0.0023 3.165318,2.073996 3.191543,2.232492 1.062276,6.420112 -1.200741,2.361489 -3.378442,5.433636 -4.839337,6.826992 -2.641932,2.519791 -2.629362,2.555884 2.344476,6.731672 3.892249,3.267742 4.802839,4.821542 4.108211,7.010118 -0.49084,1.546501 -1.803134,3.161287 -2.91621,3.588415 -2.508061,0.962433 -9.911085,-2.02382 -12.371308,-4.990374 -2.663063,-3.211141 -4.446712,-2.757056 -9.450998,2.406055 -8.656844,8.931596 -22.7706,11.091863 -34.448187,5.272676 z"
       id="path4287"
       inkscape:connector-curvature="0" />
    <path
       style="fill:#f5a38a;stroke-width:1.33333337"
       d="M 23.270939,62.231898 C 12.584585,58.114476 5.3333335,50.428726 5.3333335,43.219461 c 0,-5.12801 5.3581315,-13.270937 11.1112495,-16.886127 11.055274,-6.946999 32.797617,-4.109121 38.809044,5.065476 2.588369,3.950351 4.88187,4.158764 7.077418,0.643134 2.622658,-4.199544 9.193819,-7.056721 12.347665,-5.368832 3.800768,2.034109 3.283111,5.851628 -1.538072,11.342651 l -4.192697,4.775218 4.859364,4.451004 c 5.616281,5.144314 5.920433,6.530271 2.030941,9.254577 -3.408824,2.387633 -8.083617,1.007129 -13.239255,-3.909659 l -3.40101,-3.243448 -5.242397,5.368701 C 46.070351,62.787367 33.01583,65.986577 23.270939,62.231898 Z"
       id="path4285"
       inkscape:connector-curvature="0" />
    <path
       style="fill:#f49c86;stroke-width:1.33333337"
       d="M 20.612181,60.913458 C 3.546545,52.790746 1.1755445,38.53964 15.049588,27.479018 c 9.571749,-7.630759 29.801019,-6.230972 38.416836,2.658296 2.414512,2.491144 4.918476,4.529354 5.564365,4.529354 0.645888,0 3.006514,-1.832174 5.245837,-4.071496 3.111559,-3.111558 5.052129,-3.97605 8.23077,-3.666667 5.880556,0.572365 6.15292,4.800693 0.708644,11.00138 l -4.268099,4.861096 4.945973,4.530335 c 4.255058,3.89748 4.741064,4.91321 3.479119,7.271176 -2.191533,4.094919 -8.357026,3.551436 -13.785944,-1.215217 l -4.505704,-3.95606 -3.874026,4.129395 c -4.834515,5.153199 -12.542822,8.697492 -21.207358,9.75118 -5.397405,0.656375 -7.946302,0.201661 -13.38782,-2.388332 z"
       id="path4283"
       inkscape:connector-curvature="0" />
    <path
       style="fill:#f3a17b;stroke-width:1.33333337"
       d="M 18.494729,59.992021 C 10.578795,55.809124 6.6666669,50.143058 6.6666669,42.861043 c 0,-7.574481 2.3001114,-11.175069 10.4340781,-16.333477 10.856955,-6.885277 28.913564,-4.653865 37.465009,4.629876 4.085469,4.435327 4.75186,4.396743 9.710872,-0.56227 3.111559,-3.111558 5.052129,-3.97605 8.23077,-3.666667 5.802938,0.564811 6.156689,4.7964 0.901341,10.781911 -2.241471,2.552893 -4.071608,5.162416 -4.066971,5.798939 0.0047,0.636522 1.84495,2.202544 4.089586,3.480048 3.250326,1.84988 3.995058,3.071341 3.658236,6 -0.353123,3.070388 -1.140848,3.746425 -4.773083,4.096332 -3.398556,0.327395 -5.243928,-0.474697 -8.435898,-3.666667 -2.247153,-2.247153 -4.378316,-4.085733 -4.735916,-4.085733 -0.3576,0 -2.236625,1.885379 -4.175609,4.189731 -1.938984,2.304352 -5.950248,5.291176 -8.913921,6.637384 -7.3541,3.340504 -21.078672,3.256631 -27.560432,-0.168429 z"
       id="path4281"
       inkscape:connector-curvature="0" />
    <path
       style="fill:#8bb2d0;stroke-width:1.33333337"
       d="M 18.494729,59.992021 C 10.578795,55.809124 6.6666669,50.143058 6.6666669,42.861043 c 0,-7.574481 2.3001114,-11.175069 10.4340781,-16.333477 11.396383,-7.227373 30.048624,-4.478565 37.928082,5.589516 l 3.483423,4.450988 4.880227,-5.025009 c 3.932936,-4.049616 5.694896,-4.945884 9.077209,-4.617368 5.84211,0.567428 6.20912,4.782445 0.939051,10.784723 -2.241471,2.552893 -4.071608,5.162416 -4.066971,5.798939 0.0047,0.636522 1.84495,2.202544 4.089586,3.480048 3.250326,1.84988 3.995058,3.071341 3.658236,6 -0.353123,3.070388 -1.140848,3.746425 -4.773083,4.096332 -3.398556,0.327395 -5.243928,-0.474697 -8.435898,-3.666667 -2.247153,-2.247153 -4.378316,-4.085733 -4.735916,-4.085733 -0.3576,0 -2.236625,1.885379 -4.175609,4.189731 -1.938984,2.304352 -5.950248,5.291176 -8.913921,6.637384 -7.3541,3.340504 -21.078672,3.256631 -27.560432,-0.168429 z"
       id="path4279"
       inkscape:connector-curvature="0" />
    <path
       style="fill:#f49b7c;stroke-width:1.33333337"
       d="M 18.494729,59.992021 C 10.578795,55.809124 6.6666669,50.143058 6.6666669,42.861043 c 0,-7.574481 2.3001114,-11.175069 10.4340781,-16.333477 11.396383,-7.227373 30.048624,-4.478565 37.928082,5.589516 l 3.483423,4.450988 4.880227,-5.025009 c 3.932936,-4.049616 5.694896,-4.945884 9.077209,-4.617368 5.84211,0.567428 6.20912,4.782445 0.939051,10.784723 -2.241471,2.552893 -4.071608,5.162416 -4.066971,5.798939 0.0047,0.636522 1.84495,2.202544 4.089586,3.480048 3.250326,1.84988 3.995058,3.071341 3.658236,6 -0.353123,3.070388 -1.140848,3.746425 -4.773083,4.096332 -3.398556,0.327395 -5.243928,-0.474697 -8.435898,-3.666667 -2.247153,-2.247153 -4.378316,-4.085733 -4.735916,-4.085733 -0.3576,0 -2.236625,1.885379 -4.175609,4.189731 -1.938984,2.304352 -5.950248,5.291176 -8.913921,6.637384 -7.3541,3.340504 -21.078672,3.256631 -27.560432,-0.168429 z m 0.838605,-22.658687 c 0,-0.977777 -0.75,-2.027777 -1.666667,-2.333333 C 16.675214,34.669517 16,35.614816 16,37.333334 c 0,1.718519 0.675214,2.663818 1.666667,2.333334 0.916667,-0.305556 1.666667,-1.355556 1.666667,-2.333334 z"
       id="path4277"
       inkscape:connector-curvature="0" />
    <path
       style="fill:#f39373;stroke-width:1.33333337"
       d="M 17.100745,58.80577 C 9.2085126,53.800666 6.6666669,50.007187 6.6666669,43.233837 c 0,-7.150544 4.2374601,-13.306568 11.9793781,-17.403191 11.308695,-5.983979 28.537919,-3.153572 36.014142,5.916382 l 3.976161,4.823773 5.071378,-4.952067 c 5.303308,-5.178541 11.71215,-6.681955 13.097262,-3.072409 0.83253,2.169541 -2.323382,8.840843 -5.383736,11.380712 -3.163181,2.625207 -2.520635,5.11405 1.912084,7.406298 2.829866,1.463381 4,3.045816 4,5.40942 0,6.036183 -8.290258,5.958826 -13.933202,-0.130013 -1.671589,-1.803674 -3.420452,-3.279407 -3.88636,-3.279407 -0.465908,0 -3.111507,2.264401 -5.879108,5.032003 -9.225331,9.225331 -25.81035,11.24112 -36.533921,4.440432 z m 2.232589,-21.472436 c 0,-0.977777 -0.75,-2.027777 -1.666667,-2.333333 C 16.675214,34.669517 16,35.614816 16,37.333334 c 0,1.718519 0.675214,2.663818 1.666667,2.333334 0.916667,-0.305556 1.666667,-1.355556 1.666667,-2.333334 z"
       id="path4275"
       inkscape:connector-curvature="0" />
    <path
       style="fill:#a6a6ab;stroke-width:1.33333337"
       d="M 18.646045,59.50269 C 7.6521005,53.685262 3.648144,42.966032 9.1184926,33.995914 12.316744,28.751517 24.355233,22.666667 31.532692,22.666667 c 8.979804,0 18.915319,3.891251 22.74051,8.906334 1.85715,2.434851 3.845424,4.427 4.418385,4.427 0.572962,0 3.141748,-2.1 5.708415,-4.666667 4.675763,-4.675763 7.965598,-5.660487 11.479436,-3.436061 1.556622,0.985413 1.592948,1.881411 0.2115,5.216524 -0.917365,2.214713 -2.81311,5.063122 -4.212769,6.329795 -3.516331,3.182236 -3.202204,4.902239 1.534941,8.404561 2.782876,2.057469 3.948455,3.938526 3.666667,5.917411 -0.642133,4.509459 -8.21546,3.595276 -13.621263,-1.644234 L 59.207143,48.000739 54.04813,53.284047 C 44.813964,62.740691 29.762001,65.384682 18.646045,59.50269 Z m 0.687289,-22.169356 c 0,-0.977777 -0.75,-2.027777 -1.666667,-2.333333 C 16.675214,34.669517 16,35.614816 16,37.333334 c 0,1.718519 0.675214,2.663818 1.666667,2.333334 0.916667,-0.305556 1.666667,-1.355556 1.666667,-2.333334 z"
       id="path4273"
       inkscape:connector-curvature="0" />
    <path
       style="fill:#79aacf;stroke-width:1.33333337"
       d="M 18.646045,59.50269 C 7.6521005,53.685262 3.648144,42.966032 9.1184926,33.995914 12.316744,28.751517 24.355233,22.666667 31.532692,22.666667 c 8.979804,0 18.915319,3.891251 22.74051,8.906334 1.85715,2.434851 3.845424,4.427 4.418385,4.427 0.572962,0 3.141748,-2.1 5.708415,-4.666667 4.675763,-4.675763 7.965598,-5.660487 11.479436,-3.436061 1.556622,0.985413 1.592948,1.881411 0.2115,5.216524 -0.917365,2.214713 -2.81311,5.063122 -4.212769,6.329795 -3.516331,3.182236 -3.202204,4.902239 1.534941,8.404561 2.782876,2.057469 3.948455,3.938526 3.666667,5.917411 -0.642133,4.509459 -8.21546,3.595276 -13.621263,-1.644234 L 59.207143,48.000739 54.04813,53.284047 C 44.813964,62.740691 29.762001,65.384682 18.646045,59.50269 Z m 0.723386,-20.894429 c 0.473079,-0.765457 0.213695,-2.170663 -0.576409,-3.122679 -0.790104,-0.952017 -0.991757,-2.255953 -0.44812,-2.897637 0.543637,-0.641683 3.73e-4,-0.414417 -1.207255,0.505036 -1.28492,0.978301 -1.911747,2.757528 -1.511159,4.289378 0.749265,2.865192 2.396394,3.404665 3.742943,1.225902 z"
       id="path4271"
       inkscape:connector-curvature="0" />
    <path
       style="fill:#f28d72;stroke-width:1.33333337"
       d="M 18.646045,59.50269 C 7.6521005,53.685262 3.648144,42.966032 9.1184926,33.995914 12.316744,28.751517 24.355233,22.666667 31.532692,22.666667 c 8.979804,0 18.915319,3.891251 22.74051,8.906334 1.85715,2.434851 3.845424,4.427 4.418385,4.427 0.572962,0 3.141748,-2.1 5.708415,-4.666667 4.675763,-4.675763 7.965598,-5.660487 11.479436,-3.436061 1.556622,0.985413 1.592948,1.881411 0.2115,5.216524 -0.917365,2.214713 -2.81311,5.063122 -4.212769,6.329795 -3.516331,3.182236 -3.202204,4.902239 1.534941,8.404561 2.782876,2.057469 3.948455,3.938526 3.666667,5.917411 -0.642133,4.509459 -8.21546,3.595276 -13.621263,-1.644234 L 59.207143,48.000739 54.04813,53.284047 C 44.813964,62.740691 29.762001,65.384682 18.646045,59.50269 Z m 2.687289,-22.169356 c 0,-1.526346 -0.888889,-2.666666 -2.078689,-2.666666 -1.30809,0 -1.707494,-0.617858 -1.07739,-1.666667 0.762507,-1.269192 0.49612,-1.257501 -1.116997,0.04903 -2.732695,2.213309 -1.531803,6.950973 1.761917,6.950973 1.62227,0 2.511159,-0.943934 2.511159,-2.666667 z"
       id="path4269"
       inkscape:connector-curvature="0" />
    <path
       style="fill:#baa096;stroke-width:1.33333337"
       d="M 17.695466,58.643632 C 2.4729641,49.91347 2.968365,34.864469 18.759078,26.333837 c 6.321341,-3.414984 8.261886,-3.834071 15.280139,-3.29995 9.233162,0.702687 17.885141,4.61715 21.121182,9.555973 1.228927,1.875577 2.760579,3.410141 3.403673,3.410141 0.643095,0 3.269263,-2.1 5.83593,-4.666667 4.94907,-4.949069 8.919298,-5.896715 11.529266,-2.751896 1.928669,2.323904 0.08749,6.439727 -5.023603,11.229954 l -3.355375,3.144725 5.224856,4.42724 c 4.441227,3.763239 4.996738,4.791401 3.703875,6.855277 -2.232243,3.563462 -8.184714,2.569732 -13.090799,-2.185435 l -4.181079,-4.05246 -5.159013,5.283308 C 44.269761,63.298005 29.585966,65.462882 17.695466,58.643632 Z m 3.637868,-21.310298 c 0,-1.526346 -0.888889,-2.666666 -2.078689,-2.666666 -1.30809,0 -1.707494,-0.617858 -1.07739,-1.666667 0.762507,-1.269192 0.49612,-1.257501 -1.116997,0.04903 -2.732695,2.213309 -1.531803,6.950973 1.761917,6.950973 1.62227,0 2.511159,-0.943934 2.511159,-2.666667 z"
       id="path4267"
       inkscape:connector-curvature="0" />
    <path
       style="fill:#f39368;stroke-width:1.33333337"
       d="M 17.695466,58.643632 C 2.4729641,49.91347 2.968365,34.864469 18.759078,26.333837 c 6.321341,-3.414984 8.261886,-3.834071 15.280139,-3.29995 9.233162,0.702687 17.885141,4.61715 21.121182,9.555973 1.228927,1.875577 2.760579,3.410141 3.403673,3.410141 0.643095,0 3.269263,-2.1 5.83593,-4.666667 4.94907,-4.949069 8.919298,-5.896715 11.529266,-2.751896 1.928669,2.323904 0.08749,6.439727 -5.023603,11.229954 l -3.355375,3.144725 5.224856,4.42724 c 4.441227,3.763239 4.996738,4.791401 3.703875,6.855277 -2.232243,3.563462 -8.184714,2.569732 -13.090799,-2.185435 l -4.181079,-4.05246 -5.159013,5.283308 C 44.269761,63.298005 29.585966,65.462882 17.695466,58.643632 Z m 3.637868,-21.310298 c 0,-1.526346 -0.888889,-2.666666 -2.078689,-2.666666 -1.143279,0 -1.70787,-0.6 -1.254644,-1.333334 0.453225,-0.733333 0.224045,-1.333333 -0.509288,-1.333333 -2.048254,0 -2.772814,1.907904 -1.937554,5.101945 0.98198,3.755095 5.780175,3.947174 5.780175,0.231388 z"
       id="path4265"
       inkscape:connector-curvature="0" />
    <path
       style="fill:#8ca4b7;stroke-width:1.33333337"
       d="M 17.695466,58.643632 C 13.612856,56.302242 9.8229243,52.902623 8.5490117,50.439148 5.9755859,45.462691 6.6041887,38.036457 10.043116,32.78799 c 1.976609,-3.016688 2.976636,-3.442561 6.345998,-2.702525 3.557912,0.781448 3.920817,0.577051 3.285941,-1.850721 -0.92856,-3.550819 1.061714,-4.234743 12.323455,-4.234743 8.905495,0 21.334825,3.709819 21.334825,6.367868 0,0.621116 1.246315,2.467064 2.769588,4.102105 l 2.76959,2.972805 5.228929,-5.388055 c 5.461768,-5.627979 9.142544,-6.708853 11.827826,-3.473286 1.932834,2.328923 0.08552,6.441775 -5.058587,11.262375 l -3.390358,3.177146 4.926507,3.952181 c 5.306739,4.257215 6.036171,6.44607 2.99049,8.97376 -2.536982,2.105507 -6.513187,0.747908 -12.051426,-4.11473 l -4.478893,-3.932521 -4.870335,5.263891 c -9.225145,9.970599 -24.460812,12.270602 -36.3012,5.480092 z m 3.637868,-21.310298 c 0,-1.526346 -0.888889,-2.666666 -2.078689,-2.666666 -1.143279,0 -1.70787,-0.6 -1.254644,-1.333334 0.453225,-0.733333 0.224045,-1.333333 -0.509288,-1.333333 -2.048254,0 -2.772814,1.907904 -1.937554,5.101945 0.98198,3.755095 5.780175,3.947174 5.780175,0.231388 z"
       id="path4263"
       inkscape:connector-curvature="0" />
    <path
       style="fill:#f28b6a;stroke-width:1.33333337"
       d="M 17.695466,58.643632 C 13.612856,56.302242 9.8229243,52.902623 8.5490117,50.439148 5.9755859,45.462691 6.6041887,38.036457 10.043116,32.78799 c 1.976609,-3.016688 2.976636,-3.442561 6.345998,-2.702525 3.557912,0.781448 3.920817,0.577051 3.285941,-1.850721 -0.92856,-3.550819 1.061714,-4.234743 12.323455,-4.234743 8.905495,0 21.334825,3.709819 21.334825,6.367868 0,0.621116 1.246315,2.467064 2.769588,4.102105 l 2.76959,2.972805 5.228929,-5.388055 c 5.461768,-5.627979 9.142544,-6.708853 11.827826,-3.473286 1.932834,2.328923 0.08552,6.441775 -5.058587,11.262375 l -3.390358,3.177146 4.926507,3.952181 c 5.306739,4.257215 6.036171,6.44607 2.99049,8.97376 -2.536982,2.105507 -6.513187,0.747908 -12.051426,-4.11473 l -4.478893,-3.932521 -4.870335,5.263891 c -9.225145,9.970599 -24.460812,12.270602 -36.3012,5.480092 z m 3.637868,-22.198306 c 0,-1.798153 -0.548753,-2.930222 -1.219453,-2.515706 -0.670699,0.414514 -1.45611,0.04369 -1.745356,-0.824046 -0.289247,-0.86774 -1.240492,-1.136068 -2.11388,-0.596285 -2.100173,1.297979 -2.04191,7.11015 0.07869,7.849858 2.960137,1.032557 5,-0.564175 4.999999,-3.913821 z"
       id="path4261"
       inkscape:connector-curvature="0" />
    <path
       style="fill:#f38b63;stroke-width:1.33333337"
       d="M 20.646922,59.87969 C 7.684539,53.080914 3.5307804,43.562381 9.6443014,34.666668 12.159434,31.006928 13.62266,30.082813 16.425719,30.3838 c 2.775244,0.298 3.574282,-0.191731 3.574282,-2.190682 0,-3.385823 2.462488,-4.193117 12.790248,-4.193117 9.963436,0 19.191945,3.650679 21.867841,8.650636 2.490957,4.654397 5.026071,5.07091 7.53726,1.238351 2.687024,-4.100918 8.889542,-7.489789 11.720192,-6.403566 3.293507,1.263838 2.448804,5.340156 -2.20494,10.640479 l -4.2894,4.885356 4.956126,4.161039 c 5.411285,4.54318 6.000272,6.301191 2.957213,8.826706 -2.64492,2.195088 -9.38246,-0.48183 -12.257836,-4.870208 -2.79058,-4.258966 -4.100844,-3.970011 -9.243983,2.03859 -7.669793,8.960427 -22.991165,12.059395 -33.1858,6.712306 z m 0.686412,-23.434364 c 0,-1.840054 -0.582912,-2.909112 -1.333333,-2.445325 -0.733334,0.453225 -1.333334,0.252828 -1.333334,-0.445325 0,-0.698155 -0.777394,-1.567686 -1.727545,-1.932292 -2.251499,-0.863982 -2.97188,7.121303 -0.765457,8.484948 2.619893,1.619183 5.159669,-0.183388 5.159669,-3.662006 z"
       id="path4259"
       inkscape:connector-curvature="0" />
    <path
       style="fill:#c19685;stroke-width:1.33333337"
       d="M 20.646922,59.87969 C 7.684539,53.080914 3.5307804,43.562381 9.6443014,34.666668 12.159434,31.006928 13.62266,30.082813 16.425719,30.3838 c 1.965855,0.211089 3.574282,-0.196054 3.574282,-0.904762 0,-3.370565 4.46675,-5.479037 11.607212,-5.479037 10.862587,0 17.26073,2.365724 22.290585,8.241977 2.396906,2.800246 4.768785,5.091356 5.270843,5.091356 0.502057,0 2.756656,-2.1 5.01022,-4.666666 2.911582,-3.31611 5.215035,-4.666667 7.959264,-4.666667 5.261099,0 5.120325,3.807249 -0.372069,10.062742 l -4.233946,4.822198 5.00309,4.583434 c 5.734154,5.253179 5.684613,7.689877 -0.168195,8.272601 -3.225695,0.321162 -5.062787,-0.589576 -8.659399,-4.292889 l -4.5651,-4.700534 -5.829764,5.940098 c -9.271754,9.447228 -22.720665,12.408276 -32.66582,7.192039 z m 0.686412,-23.434364 c 0,-1.840054 -0.582912,-2.909112 -1.333333,-2.445325 -0.733334,0.453225 -1.333334,0.252828 -1.333334,-0.445325 0,-0.698155 -0.777394,-1.567686 -1.727545,-1.932292 -2.251499,-0.863982 -2.97188,7.121303 -0.765457,8.484948 2.619893,1.619183 5.159669,-0.183388 5.159669,-3.662006 z"
       id="path4257"
       inkscape:connector-curvature="0" />
    <path
       style="fill:#7ea1bb;stroke-width:1.33333337"
       d="M 20.646922,59.87969 C 7.684539,53.080914 3.5307804,43.562381 9.6443014,34.666668 12.159434,31.006928 13.62266,30.082813 16.425719,30.3838 c 1.965855,0.211089 3.574282,-0.196054 3.574282,-0.904762 0,-3.370565 4.46675,-5.479037 11.607212,-5.479037 10.862587,0 17.26073,2.365724 22.290585,8.241977 2.396906,2.800246 4.768785,5.091356 5.270843,5.091356 0.502057,0 2.756656,-2.1 5.01022,-4.666666 2.911582,-3.31611 5.215035,-4.666667 7.959264,-4.666667 5.261099,0 5.120325,3.807249 -0.372069,10.062742 l -4.233946,4.822198 5.00309,4.583434 c 5.734154,5.253179 5.684613,7.689877 -0.168195,8.272601 -3.225695,0.321162 -5.062787,-0.589576 -8.659399,-4.292889 l -4.5651,-4.700534 -5.829764,5.940098 c -9.271754,9.447228 -22.720665,12.408276 -32.66582,7.192039 z m 0.686412,-23.434364 c 0,-1.840054 -0.582912,-2.909112 -1.333333,-2.445325 -0.733334,0.453225 -1.333334,0.252828 -1.333334,-0.445325 0,-0.698155 -0.931162,-1.626692 -2.06925,-2.063418 -1.138089,-0.436725 -1.728301,-0.242377 -1.311585,0.431884 0.416716,0.674262 0.174084,1.586604 -0.539184,2.027428 -1.435288,0.887058 -0.347593,4.887597 1.701853,6.259405 2.329868,1.55951 4.884833,-0.409552 4.884833,-3.764649 z"
       id="path4255"
       inkscape:connector-curvature="0" />
    <path
       style="fill:#ca9679;stroke-width:1.33333337"
       d="M 20.646922,59.87969 C 7.684539,53.080914 3.5307804,43.562381 9.6443014,34.666668 12.159434,31.006928 13.62266,30.082813 16.425719,30.3838 c 1.965855,0.211089 3.574282,-0.196054 3.574282,-0.904762 0,-3.370565 4.46675,-5.479037 11.607212,-5.479037 10.862587,0 17.26073,2.365724 22.290585,8.241977 2.396906,2.800246 4.768785,5.091356 5.270843,5.091356 0.502057,0 2.756656,-2.1 5.01022,-4.666666 2.911582,-3.31611 5.215035,-4.666667 7.959264,-4.666667 5.261099,0 5.120325,3.807249 -0.372069,10.062742 l -4.233946,4.822198 5.00309,4.583434 c 5.734154,5.253179 5.684613,7.689877 -0.168195,8.272601 -3.225695,0.321162 -5.062787,-0.589576 -8.659399,-4.292889 l -4.5651,-4.700534 -5.829764,5.940098 c -9.271754,9.447228 -22.720665,12.408276 -32.66582,7.192039 z m 1.360453,-19.891621 c 1.442023,-2.333242 -0.595745,-6.19102 -4.117945,-7.795843 -1.865956,-0.850186 -3.044636,-0.982698 -2.61929,-0.294473 0.425347,0.688225 0.189776,1.611993 -0.523492,2.052817 -1.471545,0.909464 -0.332053,4.886857 1.822763,6.362347 2.033188,1.392207 4.466606,1.246843 5.437964,-0.324848 z"
       id="path4253"
       inkscape:connector-curvature="0" />
    <path
       style="fill:#f38b5a;stroke-width:1.33333337"
       d="M 20.646922,59.87969 C 7.7633388,53.122244 3.5438664,43.572729 9.5519159,34.769458 12.501378,30.44777 17.74153,26.770125 15.28392,30.74662 c -0.597997,0.967581 -1.148913,3.617136 -1.224258,5.887901 -0.1242,3.743216 0.23826,4.124158 3.882445,4.080406 4.538418,-0.05449 6.089023,-3.335188 2.958526,-6.259511 -1.411602,-1.318634 -1.584344,-2.657115 -0.657531,-5.09482 1.738896,-4.573645 3.353316,-5.316717 11.602206,-5.340178 10.601425,-0.03015 17.045871,2.372452 22.05249,8.22156 2.396906,2.800246 4.768785,5.091356 5.270843,5.091356 0.502057,0 2.756656,-2.1 5.01022,-4.666666 2.911582,-3.31611 5.215035,-4.666667 7.959264,-4.666667 5.261099,0 5.120325,3.807249 -0.372069,10.062742 l -4.233946,4.822198 5.00309,4.583434 c 5.734154,5.253179 5.684613,7.689877 -0.168195,8.272601 -3.225695,0.321162 -5.062787,-0.589576 -8.659399,-4.292889 l -4.5651,-4.700534 -5.829764,5.940098 c -9.271754,9.447228 -22.720665,12.408276 -32.66582,7.192039 z"
       id="path4251"
       inkscape:connector-curvature="0" />
    <path
       style="fill:#a89991;stroke-width:1.33333337"
       d="M 20.646922,59.863475 C 12.873397,55.762539 8.145752,50.799487 7.1973808,45.744233 6.2617935,40.757125 8.3052292,34.677056 12.058497,31.280396 c 2.387275,-2.160455 2.468381,-2.023076 2.136067,3.61815 -0.337504,5.729321 -0.252356,5.862777 3.710774,5.815998 4.604204,-0.05435 6.076225,-3.209171 2.954127,-6.331268 -1.69831,-1.698311 -1.528212,-2.467078 1.363372,-6.161838 2.79022,-3.56524 4.1696,-4.212291 8.873801,-4.162593 9.420447,0.09952 18.360565,3.128367 21.820089,7.392485 1.732232,2.135102 3.781099,4.656448 4.553039,5.602991 1.095492,1.34328 2.551041,0.538551 6.632067,-3.666667 9.559396,-9.850305 16.630544,-5.536986 7.664223,4.675089 l -4.233946,4.822198 4.900612,4.489554 c 5.293828,4.849784 6.037359,6.939656 2.897632,8.144483 -3.465488,1.329832 -8.777768,-0.812632 -12.721743,-5.130732 -3.328522,-3.644266 -4.07868,-3.934615 -6.014585,-2.327956 -1.21647,1.00958 -3.497772,2.478653 -5.06956,3.264606 -1.571788,0.785954 -2.859455,2.58512 -2.861479,3.998148 -0.0025,1.780966 -1.229698,2.821436 -4,3.391519 -2.197976,0.452307 -5.306874,1.526566 -6.908664,2.38724 -4.414854,2.372196 -11.193592,1.881514 -17.107401,-1.238328 z"
       id="path4249"
       inkscape:connector-curvature="0" />
    <path
       style="fill:#8c9da9;stroke-width:1.33333337"
       d="M 20.646922,59.863475 C 6.1939919,52.238806 2.525311,39.907811 12.12505,31.220166 c 2.48354,-2.247573 2.525725,-2.143073 1.666236,4.127584 -0.77373,5.64497 -0.610695,6.329501 1.330116,5.584742 1.216563,-0.466839 2.211932,-0.267629 2.211932,0.442689 0,2.138144 3.220643,0.810386 4.952753,-2.041846 1.990008,-3.27691 2.163658,-5.102003 0.38058,-4.000001 -0.733333,0.453226 -1.333333,-0.146774 -1.333333,-1.333333 0,-1.372948 -0.606007,-1.792003 -1.666667,-1.152504 -0.916666,0.552681 -0.09544,-1.061908 1.824958,-3.587977 4.159881,-5.471871 8.656911,-6.298918 20.256974,-3.725451 5.964409,1.3232 8.638367,2.716491 11.076984,5.771763 1.76804,2.215126 3.852064,4.801946 4.631164,5.748489 1.107971,1.346095 2.555508,0.547363 6.645086,-3.666667 9.559396,-9.850305 16.630544,-5.536986 7.664223,4.675089 l -4.233946,4.822198 4.900612,4.489554 c 5.293828,4.849784 6.037359,6.939656 2.897632,8.144483 -3.465488,1.329832 -8.777768,-0.812632 -12.721743,-5.130732 -3.328522,-3.644266 -4.07868,-3.934615 -6.014585,-2.327956 -1.21647,1.00958 -3.497772,2.478653 -5.06956,3.264606 -1.571788,0.785954 -2.859455,2.58512 -2.861479,3.998148 -0.0025,1.780966 -1.229698,2.821436 -4,3.391519 -2.197976,0.452307 -5.306874,1.526566 -6.908664,2.38724 -4.414854,2.372196 -11.193592,1.881514 -17.107401,-1.238328 z"
       id="path4247"
       inkscape:connector-curvature="0" />
    <path
       style="fill:#f2845b;stroke-width:1.33333337"
       d="M 20.646922,59.863475 C 6.1939919,52.238806 2.525311,39.907811 12.12505,31.220166 c 2.482162,-2.246326 2.526042,-2.145388 1.696934,3.903607 -0.656583,4.790299 -0.428757,6.232878 0.996784,6.311576 1.016344,0.05611 2.931083,0.307888 4.254974,0.559512 3.325624,0.632078 5.664545,-5.447049 3.087313,-8.024281 -1.013977,-1.013978 -2.344346,-1.422166 -2.956376,-0.907087 -0.612029,0.51508 0.437772,-1.163492 2.332895,-3.730159 4.102427,-5.55614 8.535511,-6.389471 20.211025,-3.799265 5.964409,1.3232 8.638367,2.716491 11.076984,5.771763 1.76804,2.215126 3.852064,4.801946 4.631164,5.748489 1.107971,1.346095 2.555508,0.547363 6.645086,-3.666667 9.559396,-9.850305 16.630544,-5.536986 7.664223,4.675089 l -4.233946,4.822198 4.900612,4.489554 c 5.293828,4.849784 6.037359,6.939656 2.897632,8.144483 -3.465488,1.329832 -8.777768,-0.812632 -12.721743,-5.130732 -3.328522,-3.644266 -4.07868,-3.934615 -6.014585,-2.327956 -1.21647,1.00958 -3.497772,2.478653 -5.06956,3.264606 -1.571788,0.785954 -2.859455,2.58512 -2.861479,3.998148 -0.0025,1.780966 -1.229698,2.821436 -4,3.391519 -2.197976,0.452307 -5.306874,1.526566 -6.908664,2.38724 -4.414854,2.372196 -11.193592,1.881514 -17.107401,-1.238328 z"
       id="path4245"
       inkscape:connector-curvature="0" />
    <path
       style="fill:#f07e62;stroke-width:1.33333337"
       d="m 23.287043,61.39797 c -1.492126,-0.604817 -3.515593,-2.066787 -4.496593,-3.248819 -0.980999,-1.182032 -2.50558,-2.149149 -3.387958,-2.149149 -3.036242,0 -7.6221782,-6.413488 -8.2484847,-11.53561 -0.4497702,-3.678355 0.1418648,-6.357909 2.089699,-9.464391 3.6570187,-5.832355 5.3201847,-5.458933 4.4538597,1 -0.532237,3.96813 -0.243784,5.359447 1.126876,5.435348 1.013224,0.05611 2.925409,0.307888 4.2493,0.559512 3.325624,0.632078 5.664545,-5.447049 3.087313,-8.024281 -1.013977,-1.013978 -2.344346,-1.422166 -2.956376,-0.907087 -0.612029,0.51508 0.438099,-1.163492 2.33362,-3.730159 2.737603,-3.706904 4.51057,-4.756828 8.620719,-5.105061 7.515694,-0.63677 20.157936,3.537501 23.250744,7.677031 5.442567,7.284536 5.106462,7.237939 10.692071,1.48235 3.476676,-3.582477 6.394327,-5.387653 8.707899,-5.387653 3.126486,0 3.387442,0.371869 2.57305,3.666667 -0.498469,2.016666 -2.454985,5.294973 -4.347813,7.285125 -3.747916,3.940626 -3.67436,4.18729 3.370149,11.301653 3.583179,3.618709 2.845194,5.746556 -1.993036,5.746556 -2.225377,0 -5.056275,-1.723779 -8.058251,-4.906802 -3.859182,-4.091925 -4.992465,-4.644965 -6.824103,-3.330149 -1.208016,0.867159 -3.5625,2.166492 -5.232185,2.887408 -1.669685,0.720916 -3.504467,2.577708 -4.077293,4.126204 -0.675058,1.824855 -3.576473,3.708168 -8.246359,5.352726 -7.663415,2.698766 -12.290633,3.05054 -16.686848,1.268581 z"
       id="path4243"
       inkscape:connector-curvature="0" />
    <path
       style="fill:#f38952;stroke-width:1.33333337"
       d="M 23.333334,60.615591 C 7.7501926,53.031667 3.458596,44.251192 10.161619,33.666668 c 2.885248,-4.556002 4.331953,-3.601336 3.535947,2.333333 -0.532237,3.96813 -0.243784,5.359447 1.126876,5.435348 1.013224,0.05611 2.925409,0.307888 4.2493,0.559512 3.325624,0.632078 5.664545,-5.447049 3.087313,-8.024281 -1.013977,-1.013978 -2.344346,-1.422166 -2.956376,-0.907087 -0.612029,0.51508 0.438099,-1.163492 2.33362,-3.730159 2.737603,-3.706904 4.51057,-4.756828 8.620719,-5.105061 7.515694,-0.63677 20.157936,3.537501 23.250744,7.677031 5.442567,7.284536 5.106462,7.237939 10.692071,1.48235 3.476676,-3.582477 6.394327,-5.387653 8.707899,-5.387653 3.115601,0 3.389301,0.38334 2.617949,3.666667 -0.473776,2.016666 -2.33882,4.987886 -4.144544,6.602712 -4.319556,3.862899 -4.142172,6.270681 0.716865,9.730622 5.128607,3.651889 5.395347,8 0.49077,8 -2.316043,0 -5.082718,-1.668383 -8.136941,-4.906802 -3.859182,-4.091925 -4.992465,-4.644965 -6.824103,-3.330149 -1.208016,0.867159 -3.5625,2.166492 -5.232185,2.887408 -1.669685,0.720916 -3.504467,2.577708 -4.077293,4.126204 -0.675058,1.824855 -3.576473,3.708168 -8.246359,5.352726 -8.534123,3.005397 -11.298269,3.08616 -16.640557,0.486202 z"
       id="path4241"
       inkscape:connector-curvature="0" />
    <path
       style="fill:#9c9a97;stroke-width:1.33333337"
       d="M 23.333334,60.615591 C 7.7501926,53.031667 3.458596,44.251192 10.161619,33.666668 c 2.885248,-4.556002 4.331953,-3.601336 3.535947,2.333333 -0.532237,3.96813 -0.243784,5.359447 1.126876,5.435348 1.013224,0.05611 2.925409,0.307888 4.2493,0.559512 3.325624,0.632078 5.664545,-5.447049 3.087313,-8.024281 -1.013977,-1.013978 -2.100096,-1.722166 -2.413597,-1.573754 -0.313501,0.148414 1.124536,-1.380158 3.195639,-3.396825 4.338924,-4.224882 11.927789,-4.975834 16.675867,-1.650151 1.583439,1.109083 4.822489,1.859083 7.197889,1.666667 3.625826,-0.293707 4.82905,0.399043 7.497803,4.316817 1.748391,2.566667 3.63368,4.830279 4.189531,5.030249 0.555852,0.19997 2.769804,-1.153646 4.919894,-3.008034 2.15009,-1.854389 5.038532,-3.733596 6.418759,-4.176013 2.011948,-0.644911 2.144126,-1.035807 0.666666,-1.97155 -1.304684,-0.826314 -0.729872,-1.173113 1.968374,-1.187568 3.480557,-0.01864 3.736476,0.297696 2.949801,3.64625 -0.473776,2.016666 -2.33882,4.987886 -4.144544,6.602712 -4.319556,3.862899 -4.142172,6.270681 0.716865,9.730622 5.128607,3.651889 5.395347,8 0.49077,8 -2.301443,0 -5.066213,-1.650882 -8.033043,-4.796639 -3.284503,-3.482587 -5.153983,-4.523227 -6.824103,-3.798612 -1.26516,0.548914 -3.200291,1.171 -4.300291,1.382412 -1.1,0.211412 -3.5,2.121265 -5.333333,4.244119 -1.833334,2.122853 -4.233334,4.282788 -5.333334,4.799854 -1.1,0.517067 -3.5,1.807745 -5.333334,2.868173 -4.208065,2.434006 -8.884136,2.406044 -14,-0.08372 z"
       id="path4239"
       inkscape:connector-curvature="0" />
    <path
       style="fill:#f28452;stroke-width:1.33333337"
       d="M 23.333334,60.615591 C 7.7501926,53.031667 3.458596,44.251192 10.161619,33.666668 c 2.857081,-4.511523 4.334337,-3.619106 3.560421,2.150869 -0.634455,4.730214 -0.395899,5.224904 2.921079,6.057412 6.333027,1.58949 9.642874,-3.805646 5.287326,-8.618473 -1.891358,-2.089926 -1.761067,-2.529494 1.513144,-5.104988 4.241844,-3.336635 12.006749,-3.721457 16.175375,-0.801638 1.583439,1.109083 4.822489,1.859083 7.197889,1.666667 3.625826,-0.293707 4.82905,0.399043 7.497803,4.316817 1.748391,2.566667 3.63368,4.830279 4.189531,5.030249 0.555852,0.19997 2.769804,-1.153646 4.919894,-3.008034 2.15009,-1.854389 5.038532,-3.733596 6.418759,-4.176013 2.011948,-0.644911 2.144126,-1.035807 0.666666,-1.97155 -1.304684,-0.826314 -0.729872,-1.173113 1.968374,-1.187568 3.480557,-0.01864 3.736476,0.297696 2.949801,3.64625 -0.473776,2.016666 -2.33882,4.987886 -4.144544,6.602712 -4.319556,3.862899 -4.142172,6.270681 0.716865,9.730622 5.128607,3.651889 5.395347,8 0.49077,8 -2.301443,0 -5.066213,-1.650882 -8.033043,-4.796639 -3.284503,-3.482587 -5.153983,-4.523227 -6.824103,-3.798612 -1.26516,0.548914 -3.200291,1.171 -4.300291,1.382412 -1.1,0.211412 -3.5,2.121265 -5.333333,4.244119 -1.833334,2.122853 -4.233334,4.282788 -5.333334,4.799854 -1.1,0.517067 -3.5,1.807745 -5.333334,2.868173 -4.208065,2.434006 -8.884136,2.406044 -14,-0.08372 z"
       id="path4237"
       inkscape:connector-curvature="0" />
    <path
       style="fill:#f07b5a;stroke-width:1.33333337"
       d="M 23.333334,60.615591 C 7.7501926,53.031667 3.458596,44.251192 10.161619,33.666668 c 2.857081,-4.511523 4.334337,-3.619106 3.560421,2.150869 -0.634455,4.730214 -0.395899,5.224904 2.921079,6.057412 6.333027,1.58949 9.642874,-3.805646 5.287326,-8.618473 -1.891358,-2.089926 -1.761067,-2.529494 1.513144,-5.104988 4.311925,-3.391762 12.025328,-3.708443 16.360868,-0.671714 1.894635,1.327054 4.465559,1.866224 6.734714,1.412394 3.90632,-0.781264 7.082385,1.714494 8.710712,6.844897 0.469363,1.478835 1.715197,3.404028 2.76852,4.278207 1.551806,1.287885 2.204142,0.955111 3.438538,-1.754096 0.837874,-1.838934 3.702829,-4.449988 6.366568,-5.802344 2.663737,-1.352358 5.260536,-3.041455 5.770663,-3.753551 1.575612,-2.199428 2.582137,0.128013 1.654217,3.825143 -0.484767,1.931464 -2.313967,4.638616 -4.064891,6.015892 -3.643568,2.866032 -4.066451,5.727712 -1.198176,8.108168 1.091926,0.906217 1.682138,2.138226 1.311584,2.737796 -0.370554,0.59957 -0.05416,1.473044 0.703096,1.941055 1.521942,0.940611 0.540271,3.333333 -1.367578,3.333333 -0.66561,0 -3.378611,-2.16841 -6.028891,-4.818692 l -4.818692,-4.818691 -4.695301,2.485358 c -2.582416,1.366948 -5.829125,3.910071 -7.214911,5.651387 -3.159918,3.97061 -13.422259,9.517635 -17.48022,9.448449 -1.683591,-0.0287 -4.861075,-0.928204 -7.061075,-1.998888 z m 50.947003,-7.282256 c 0.383541,-1.466667 0.927371,-2.666667 1.208507,-2.666667 0.281137,0 0.511158,1.2 0.511158,2.666667 0,1.466667 -0.543828,2.666667 -1.208506,2.666667 -0.66468,0 -0.8947,-1.2 -0.511159,-2.666667 z"
       id="path4235"
       inkscape:connector-curvature="0" />
    <path
       style="fill:#ec8453;stroke-width:1.33333337"
       d="M 18.109682,57.427884 C 10.711254,53.072564 8.1159832,49.334295 8.0472475,42.933788 7.997661,38.316425 11.236289,30.666668 13.240699,30.666668 c 0.644719,0 0.861323,2.31789 0.481341,5.150869 -0.634455,4.730214 -0.395899,5.224904 2.921079,6.057412 6.333027,1.58949 9.642874,-3.805646 5.287326,-8.618473 -1.891358,-2.089926 -1.761067,-2.529494 1.513144,-5.104988 4.311925,-3.391762 12.025328,-3.708443 16.360868,-0.671714 1.894635,1.327054 4.465559,1.866224 6.734714,1.412394 3.90632,-0.781264 7.082385,1.714494 8.710712,6.844897 0.469363,1.478835 1.715197,3.404028 2.76852,4.278207 1.551806,1.287885 2.204142,0.955111 3.438538,-1.754096 0.837874,-1.838934 3.702829,-4.449988 6.366568,-5.802344 2.663737,-1.352358 5.21816,-2.972888 5.676493,-3.601182 0.458334,-0.628292 1.232854,-0.495913 1.721156,0.294178 1.153444,1.86631 -2.524501,8.962205 -5.171842,9.978085 -2.612463,1.002496 -2.649681,5.378642 -0.064,7.524571 1.091925,0.906217 1.682137,2.138226 1.311584,2.737796 -0.370548,0.59957 -0.05415,1.473044 0.703102,1.941055 1.521942,0.940611 0.540271,3.333333 -1.367578,3.333333 -0.66561,0 -3.378611,-2.16841 -6.028891,-4.818692 l -4.818692,-4.818691 -4.695301,2.485358 c -2.582416,1.366948 -5.826821,3.907141 -7.209789,5.644876 -6.966331,8.753367 -19.177282,10.504146 -29.770069,4.268365 z m 56.198604,-4.201428 c 0.471479,-1.802938 1.07587,-2.407329 1.408734,-1.408734 0.320641,0.961921 -0.05095,2.382877 -0.825751,3.15768 -0.989424,0.989424 -1.162948,0.468848 -0.582983,-1.748946 z"
       id="path4233"
       inkscape:connector-curvature="0" />
    <path
       style="fill:#f1854a;stroke-width:1.33333337"
       d="M 18.109682,57.427884 C 10.752163,53.096647 8.1166305,49.334158 8.0472475,43.062739 7.9853309,37.466207 10.717514,31.275604 12.210843,33.62883 c 0.594911,0.937478 1.090844,2.989459 1.102074,4.559961 0.01397,1.953324 1.113819,3.129882 3.481288,3.724078 6.186166,1.55263 9.429088,-3.912849 5.13624,-8.656393 -1.891358,-2.089926 -1.761067,-2.529494 1.513144,-5.104988 4.311925,-3.391762 12.025328,-3.708443 16.360868,-0.671714 1.947923,1.364379 4.45459,1.868418 6.879771,1.383382 3.457771,-0.691555 4.212376,-0.11772 8.05267,6.123548 3.969417,6.451125 4.354119,6.726947 6.083572,4.36178 1.015409,-1.388656 1.846199,-2.915668 1.846199,-3.393362 0,-0.477693 2.25,-2.013016 5,-3.411826 2.75,-1.398812 5.375,-3.057352 5.833333,-3.685646 0.458334,-0.628292 1.232854,-0.495913 1.721156,0.294178 1.153444,1.86631 -2.524501,8.962205 -5.171842,9.978085 -2.612463,1.002496 -2.649681,5.378642 -0.064,7.524571 1.091925,0.906217 1.682137,2.138226 1.311584,2.737796 -0.370548,0.59957 -0.05415,1.473044 0.703102,1.941055 1.521942,0.940611 0.540271,3.333333 -1.367578,3.333333 -0.66561,0 -3.378611,-2.16841 -6.028891,-4.818692 l -4.818692,-4.818691 -4.695301,2.485358 c -2.582416,1.366948 -5.826821,3.907141 -7.209789,5.644876 -6.966331,8.753367 -19.177282,10.504146 -29.770069,4.268365 z m 56.198604,-4.201428 c 0.471479,-1.802938 1.07587,-2.407329 1.408734,-1.408734 0.320641,0.961921 -0.05095,2.382877 -0.825751,3.15768 -0.989424,0.989424 -1.162948,0.468848 -0.582983,-1.748946 z"
       id="path4231"
       inkscape:connector-curvature="0" />
    <path
       style="fill:#b49379;stroke-width:1.33333337"
       d="M 18.109682,57.427884 C 10.752163,53.096647 8.1166305,49.334158 8.0472475,43.062739 7.9853309,37.466207 10.717514,31.275604 12.210843,33.62883 c 0.594911,0.937478 1.090844,2.989459 1.102074,4.559961 0.01397,1.953324 1.113819,3.129882 3.481288,3.724078 6.047337,1.517786 9.82733,-4.744001 5.188029,-8.59428 -1.749921,-1.452305 -1.440187,-2.103655 2.333333,-4.90682 4.647635,-3.452504 5.782347,-3.418899 16.218206,0.480313 4.987952,1.863678 6.670366,2.046936 7.111112,0.774586 1.10095,-3.178234 3.020059,-1.629327 7.235214,5.839517 3.879514,6.874123 4.385707,7.30176 6.011399,5.078495 0.976344,-1.335231 1.775171,-2.913013 1.775171,-3.506186 0,-0.59317 0.836546,-1.078493 1.858993,-1.078493 1.022445,0 3.723221,-1.741451 6.001723,-3.869889 2.278503,-2.12844 4.466475,-3.34606 4.862163,-2.705824 1.021492,1.652809 -2.892523,8.766351 -5.340232,9.705625 -2.584314,0.991694 -2.659666,5.370355 -0.128574,7.470979 1.056411,0.876743 1.592218,2.45021 1.190682,3.496594 -0.825594,2.151477 -4.444755,2.614936 -4.444755,0.569182 0,-0.733333 -0.859568,-1.333333 -1.91015,-1.333333 -1.050582,0 -2.291016,-1.2 -2.756517,-2.666667 -0.979944,-3.087529 -4.408759,-3.556864 -5.485526,-0.750856 -0.40434,1.053695 -1.50436,1.620641 -2.444489,1.25988 -0.940128,-0.36076 -3.311625,1.2483 -5.269995,3.57569 -9.500203,11.290349 -19.249804,13.41132 -30.69031,6.676502 z m 56.198604,-4.201428 c 0.471479,-1.802938 1.07587,-2.407329 1.408734,-1.408734 0.320641,0.961921 -0.05095,2.382877 -0.825751,3.15768 -0.989424,0.989424 -1.162948,0.468848 -0.582983,-1.748946 z"
       id="path4229"
       inkscape:connector-curvature="0" />
    <path
       style="fill:#f17c52;stroke-width:1.33333337"
       d="M 18.109682,57.427884 C 10.752163,53.096647 8.1166305,49.334158 8.0472475,43.062739 7.9853309,37.466207 10.717514,31.275604 12.210843,33.62883 c 0.594911,0.937478 1.090844,3.043074 1.102074,4.679102 0.02174,3.167147 4.881176,5.337031 8.684102,3.877712 2.68244,-1.029349 2.650746,-8.687432 -0.04023,-9.720056 -1.576151,-0.604826 -1.04277,-1.527204 2.333333,-4.035048 4.67476,-3.472515 5.80011,-3.440541 16.24365,0.461542 4.987952,1.863678 6.670365,2.046936 7.111112,0.774586 1.10095,-3.178234 3.020059,-1.629327 7.235214,5.839517 3.879513,6.874123 4.385707,7.30176 6.011399,5.078495 0.976341,-1.335231 1.775168,-2.913013 1.775168,-3.506186 0,-0.59317 0.836546,-1.078493 1.858993,-1.078493 1.022445,0 3.723221,-1.741451 6.001723,-3.869889 2.278503,-2.12844 4.466475,-3.34606 4.862163,-2.705824 1.021492,1.652809 -2.892523,8.766351 -5.340232,9.705625 -2.584314,0.991694 -2.659666,5.370355 -0.128574,7.470979 1.056411,0.876743 1.592218,2.45021 1.190682,3.496594 -0.825594,2.151477 -4.444755,2.614936 -4.444755,0.569182 0,-0.733333 -0.859568,-1.333333 -1.91015,-1.333333 -1.050582,0 -2.291016,-1.2 -2.756517,-2.666667 -0.979944,-3.087529 -4.408759,-3.556864 -5.485526,-0.750856 -0.40434,1.053695 -1.50436,1.620641 -2.444489,1.25988 -0.940128,-0.36076 -3.311625,1.2483 -5.269995,3.57569 -9.500203,11.290349 -19.249804,13.41132 -30.69031,6.676502 z m 56.198604,-4.201428 c 0.471479,-1.802938 1.07587,-2.407329 1.408734,-1.408734 0.320641,0.961921 -0.05095,2.382877 -0.825751,3.15768 -0.989424,0.989424 -1.162948,0.468848 -0.582983,-1.748946 z"
       id="path4227"
       inkscape:connector-curvature="0" />
    <path
       style="fill:#c78d66;stroke-width:1.33333337"
       d="m 20.243159,58.000002 c -2.178792,-1.833334 -4.90942,-3.333334 -6.06806,-3.333334 -4.6671887,0 -7.9395339,-12.878433 -4.7748676,-18.791667 1.7586546,-3.286076 3.9331026,-2.081793 3.9331026,2.178287 0,3.423036 4.686696,5.658469 8.663685,4.132356 2.68244,-1.029349 2.650746,-8.687432 -0.04023,-9.720056 -1.578922,-0.60589 -1.065588,-1.505322 2.259038,-3.958154 5.229577,-3.858259 5.851593,-3.879024 13.594774,-0.453846 3.382271,1.496138 7.766968,2.546138 9.743772,2.333333 3.552783,-0.382463 4.789569,0.834143 10.62567,10.452303 1.415123,2.332187 1.623784,2.256061 3.21402,-1.172556 0.935354,-2.016667 2.2977,-3.666667 3.027436,-3.666667 0.729736,0 3.333427,-1.530535 5.785981,-3.401188 4.337496,-3.308372 4.459185,-3.324827 4.459185,-0.603001 0,1.539002 -1.5,4.18834 -3.333333,5.887416 -3.453979,3.201039 -4.312997,6.687264 -2,8.116773 2.085561,1.288948 1.562112,6.000001 -0.666667,6.000001 -1.1,0 -2,-0.6 -2,-1.333334 0,-0.733333 -0.859568,-1.333333 -1.91015,-1.333333 -1.050582,0 -2.291016,-1.2 -2.756517,-2.666667 -0.979944,-3.087529 -4.408759,-3.556864 -5.485526,-0.750856 -0.40434,1.053695 -1.50436,1.620641 -2.444489,1.25988 -0.940128,-0.36076 -3.311625,1.2483 -5.269995,3.57569 C 39.661,61.612451 28.041473,64.561853 20.243155,58.000002 Z"
       id="path4225"
       inkscape:connector-curvature="0" />
    <path
       style="fill:#ee8249;stroke-width:1.33333337"
       d="m 20.243159,58.000002 c -2.178792,-1.833334 -4.90942,-3.333334 -6.06806,-3.333334 -2.795969,0 -6.1750988,-6.755751 -6.1750988,-12.345613 0,-4.958382 3.0223798,-10.314899 4.4848918,-7.948506 0.490567,0.793755 0.282153,1.820059 -0.463142,2.280677 -2.2280844,1.377031 -1.573282,2.642929 2.66085,5.144091 7.204669,4.255903 13.193628,-1.05111 8.782865,-7.782785 -1.977698,-3.018348 -1.902962,-3.334582 1.402573,-5.934716 4.328572,-3.404855 5.300167,-3.406825 12.942565,-0.02623 3.38227,1.496139 7.766968,2.546139 9.743772,2.333333 3.552783,-0.382462 4.789568,0.834143 10.625669,10.452303 1.415123,2.332187 1.623785,2.256062 3.214021,-1.172556 0.935353,-2.016666 2.2977,-3.666667 3.027436,-3.666667 0.729736,0 3.333426,-1.530534 5.78598,-3.401188 4.337499,-3.308373 4.459188,-3.324828 4.459188,-0.603002 0,1.539002 -1.5,4.18834 -3.333333,5.887416 -3.453979,3.201039 -4.312997,6.687264 -2,8.116773 2.085561,1.288948 1.562112,6.000001 -0.666667,6.000001 -1.1,0 -2,-0.6 -2,-1.333334 0,-0.733333 -0.859568,-1.333333 -1.91015,-1.333333 -1.050582,0 -2.291016,-1.2 -2.756517,-2.666667 -0.979944,-3.087529 -4.408759,-3.556864 -5.485526,-0.750856 -0.40434,1.053695 -1.50436,1.620641 -2.444489,1.25988 -0.940128,-0.36076 -3.311625,1.2483 -5.269995,3.57569 -9.138988,10.861069 -20.758515,13.810471 -28.556833,7.24862 z"
       id="path4223"
       inkscape:connector-curvature="0" />
    <path
       style="fill:#d58b58;stroke-width:1.33333337"
       d="m 20.545455,58.000002 c -1.833333,-1.833334 -4.490652,-3.333334 -5.905153,-3.333334 -3.22487,0 -6.6403018,-6.349953 -6.6403018,-12.345613 0,-4.958382 3.0223798,-10.314899 4.4848918,-7.948506 0.490567,0.793755 0.282153,1.820059 -0.463142,2.280677 -1.793849,1.108659 -1.747406,6.013442 0.05694,6.013442 0.776612,0 1.002738,-0.662236 0.502502,-1.471636 -0.500237,-0.809399 0.634975,-0.459643 2.522692,0.777237 6.593066,4.319943 12.637217,-1.432292 8.361581,-7.957737 -1.977698,-3.018348 -1.902962,-3.334582 1.402573,-5.934716 3.913746,-3.078553 6.117691,-3.383127 9.886284,-1.366236 3.078775,1.647709 3.393945,6.950234 0.553236,9.307813 -1.471929,1.221593 -1.788481,2.997762 -1.157833,6.496594 1.264801,7.017113 3.092868,10.106089 4.907131,8.291827 0.812063,-0.812063 2.856479,-1.476479 4.543145,-1.476479 4.979971,0 3.726608,4.427572 -2.386324,8.429824 -7.387423,4.836686 -15.970028,4.935036 -20.668222,0.236843 z M 66.925853,47.971036 c -1.609219,-1.727293 -2.925851,-4.203113 -2.925851,-5.501824 0,-2.219356 6.224607,-9.135878 8.221944,-9.135878 0.503722,0 1.190252,-1.05 1.525622,-2.333333 0.449546,-1.720243 0.650404,-1.528347 0.764433,0.730332 0.08621,1.707695 -1.320657,4.430951 -3.178665,6.152895 -3.599355,3.335769 -4.197663,6.052444 -1.85,8.400107 0.815833,0.815833 1.232465,2.235936 0.92585,3.155783 -0.374018,1.122056 -1.520365,0.638917 -3.483333,-1.468082 z M 49.333335,30.666668 c -1.201723,-0.776614 -1.366178,-1.300648 -0.412023,-1.312916 0.873388,-0.01123 1.958798,0.579582 2.412023,1.312916 1.023073,1.655366 0.561497,1.655366 -2,0 z"
       id="path4221"
       inkscape:connector-curvature="0" />
    <path
       style="fill:#ed7952;stroke-width:1.33333337"
       d="m 20.545455,58.000002 c -1.833333,-1.833334 -4.490652,-3.333334 -5.905153,-3.333334 -5.4949013,0 -8.8280153,-14.034579 -4.610173,-19.411827 1.895445,-2.416469 1.975773,-2.265612 1.210815,2.273931 -0.815157,4.837435 -0.791399,4.866819 4.682652,5.791655 6.779079,1.145317 9.94945,-0.948444 8.950806,-5.91125 -1.620984,-8.055551 -1.523785,-8.569764 2.001466,-10.588435 7.065854,-4.046132 14.551221,4.121892 8.43169,9.200651 -1.471929,1.221593 -1.788481,2.997762 -1.157833,6.496594 1.264801,7.017113 3.092868,10.106089 4.907131,8.291827 0.812063,-0.812063 2.856479,-1.476479 4.543145,-1.476479 4.979971,0 3.726608,4.427572 -2.386324,8.429824 -7.387423,4.836686 -15.970028,4.935036 -20.668222,0.236843 z M 66.925853,47.971036 c -1.609219,-1.727293 -2.925851,-4.203113 -2.925851,-5.501824 0,-2.219356 6.224607,-9.135878 8.221944,-9.135878 0.503722,0 1.190252,-1.05 1.525622,-2.333333 0.449546,-1.720243 0.650404,-1.528347 0.764433,0.730332 0.08621,1.707695 -1.320657,4.430951 -3.178665,6.152895 -3.599355,3.335769 -4.197663,6.052444 -1.85,8.400107 0.815833,0.815833 1.232465,2.235936 0.92585,3.155783 -0.374018,1.122056 -1.520365,0.638917 -3.483333,-1.468082 z M 49.333335,30.666668 c -1.201723,-0.776614 -1.366178,-1.300648 -0.412023,-1.312916 0.873388,-0.01123 1.958798,0.579582 2.412023,1.312916 1.023073,1.655366 0.561497,1.655366 -2,0 z"
       id="path4219"
       inkscape:connector-curvature="0" />
    <path
       style="fill:#f07b4b;stroke-width:1.33333337"
       d="m 20.545455,58.000002 c -1.833333,-1.833334 -4.162512,-3.333334 -5.175953,-3.333334 -5.13591,0 -9.373637,-12.168969 -6.0361684,-17.333334 1.0128334,-1.567246 1.2969174,-1.231978 1.3129164,1.54947 0.01784,3.102095 0.698442,3.664021 5.399865,4.458321 6.650931,1.123668 9.819623,-1.005456 8.828287,-5.931948 -1.620984,-8.055551 -1.523785,-8.569764 2.001466,-10.588435 7.065854,-4.046132 14.551221,4.121892 8.43169,9.200651 -1.471929,1.221593 -1.788481,2.997762 -1.157833,6.496594 1.264801,7.017113 3.092868,10.106089 4.907131,8.291827 0.812063,-0.812063 2.856479,-1.476479 4.543145,-1.476479 4.979971,0 3.726608,4.427572 -2.386324,8.429824 -7.387423,4.836686 -15.970028,4.935036 -20.668222,0.236843 z M 66.800737,47.83674 c -1.540404,-1.653429 -2.800735,-4.068817 -2.800735,-5.367528 0,-2.219356 6.224607,-9.135878 8.221944,-9.135878 0.503722,0 1.190252,-1.05 1.525622,-2.333333 0.558486,-2.137111 0.62277,-2.128485 0.764433,0.10256 0.08507,1.339748 -1.645332,4.235901 -3.845332,6.435902 -4.593788,4.593788 -4.856575,5.971725 -1.785952,9.364725 1.217727,1.345572 1.878057,2.782487 1.467401,3.193142 -0.410656,0.410656 -2.006977,-0.60616 -3.547381,-2.25959 z M 49.333335,30.666668 c -1.201723,-0.776614 -1.366178,-1.300648 -0.412023,-1.312916 0.873388,-0.01123 1.958798,0.579582 2.412023,1.312916 1.023073,1.655366 0.561497,1.655366 -2,0 z"
       id="path4217"
       inkscape:connector-curvature="0" />
    <path
       style="fill:#ee8143;stroke-width:1.33333337"
       d="m 19.96849,57.302532 c -2.267899,-2.216941 -4.640542,-3.711225 -5.272539,-3.320629 -0.631996,0.390595 -2.397129,-0.876459 -3.922517,-2.815676 -2.9187618,-3.710603 -3.6212,-10.457882 -1.4401004,-13.832893 1.0128334,-1.567246 1.2969174,-1.231978 1.3129164,1.54947 0.01784,3.102095 0.698442,3.664021 5.399865,4.458321 6.650931,1.123668 9.819623,-1.005456 8.828287,-5.931948 -1.620984,-8.055551 -1.523785,-8.569764 2.001466,-10.588435 7.065854,-4.046132 14.551221,4.121892 8.43169,9.200651 -1.471929,1.221593 -1.788481,2.997762 -1.157833,6.496594 1.264801,7.017113 3.092868,10.106089 4.907131,8.291827 2.513849,-2.51385 7.609812,-1.801675 7.609812,1.063492 0,3.688533 -10.488384,9.460029 -17.191456,9.460029 -4.192343,0 -6.29549,-0.891724 -9.506722,-4.030803 z M 65.418365,46.158881 c -2.118702,-3.95883 -1.015248,-7.434136 3.373014,-10.623245 4.728507,-3.436378 6.016143,-1.337155 1.541957,2.51384 -3.546178,3.052243 -5.053035,8.617192 -2.333334,8.617192 0.733333,0 1.333334,0.6 1.333334,1.333334 0,2.417454 -2.186045,1.389408 -3.914971,-1.841121 z"
       id="path4215"
       inkscape:connector-curvature="0" />
    <path
       style="fill:#ee7b49;stroke-width:1.33333337"
       d="m 19.96849,57.302532 c -2.267899,-2.216941 -4.640542,-3.711225 -5.272539,-3.320629 -0.631996,0.390595 -2.397129,-0.876459 -3.922517,-2.815676 -2.9187618,-3.710603 -3.6212,-10.457882 -1.4401004,-13.832893 0.9518004,-1.472806 1.2978814,-0.57346 1.3129164,3.411827 0.01123,2.976506 0.797836,6.475012 1.748015,7.774459 1.565627,2.141123 1.721886,2.016816 1.666667,-1.325859 -0.05448,-3.298196 0.416615,-3.697586 4.452134,-3.774458 6.017024,-0.114614 7.990149,-3.205831 5.777936,-9.052051 -1.442505,-3.812111 -1.354176,-4.586575 0.69488,-6.092655 1.291099,-0.948973 4.142539,-1.548973 6.336534,-1.333333 4.739044,0.465781 5.992478,4.062488 2.688184,7.713693 -1.81152,2.001705 -1.933103,2.99849 -0.656663,5.38354 0.861564,1.609847 1.292724,4.359052 0.958135,6.109347 -0.334591,1.750293 0.105813,4.159026 0.978678,5.352738 1.313524,1.796352 2.103794,1.893818 4.585659,0.565564 1.649248,-0.882651 3.933422,-1.246108 5.075939,-0.807683 1.848195,0.709219 1.825881,1.074957 -0.202316,3.316089 -1.253791,1.385423 -3.735463,2.884346 -5.514825,3.330936 -1.779363,0.446592 -3.235206,1.400555 -3.235206,2.119917 0,0.719361 -2.679313,1.30793 -5.954029,1.30793 -4.82749,0 -6.734213,-0.762653 -10.077482,-4.030803 z m 5.534917,-8.969197 c 1.658495,-2.114742 1.611335,-2.161902 -0.503406,-0.503407 -1.283334,1.006459 -2.333334,2.056459 -2.333334,2.333334 0,1.097378 1.094915,0.39107 2.83674,-1.829927 z m 39.914958,-2.174454 c -2.118702,-3.95883 -1.015248,-7.434136 3.373014,-10.623245 4.728507,-3.436378 6.016143,-1.337155 1.541957,2.51384 -3.546178,3.052243 -5.053035,8.617192 -2.333334,8.617192 0.733333,0 1.333334,0.6 1.333334,1.333334 0,2.417454 -2.186045,1.389408 -3.914971,-1.841121 z"
       id="path4213"
       inkscape:connector-curvature="0" />
    <path
       style="fill:#db884a;stroke-width:1.33333337"
       d="M 20.052378,57.175823 C 17.963862,54.889191 15.64573,53.394908 14.900971,53.855194 14.156214,54.315479 12.298822,53.105444 10.773434,51.166227 7.8909584,47.501753 7.1489132,40.743156 9.26229,37.402632 c 0.801168,-1.266372 0.974147,-0.08688 0.5027167,3.427896 -0.5135713,3.82896 -0.1249813,5.952356 1.3613023,7.438639 1.144022,1.144023 1.808612,2.451469 1.476866,2.905437 -0.331746,0.45397 -0.180618,0.502842 0.33584,0.1086 0.516457,-0.394236 0.966457,-2.310709 1,-4.258829 0.05353,-3.109048 0.612677,-3.551146 4.574051,-3.616542 6.017333,-0.09933 7.992101,-3.189206 5.777936,-9.040587 -1.442505,-3.81211 -1.354176,-4.586574 0.69488,-6.092654 1.291099,-0.948974 4.142539,-1.548974 6.336534,-1.333334 4.660098,0.458023 6.006492,4.047004 2.833517,7.553102 -1.25024,1.381498 -1.827841,3.731727 -1.450204,5.900795 0.345183,1.982662 0.905652,5.202888 1.245487,7.156056 0.879069,5.052365 2.570492,6.310312 6.009827,4.469635 1.6027,-0.857739 3.848788,-1.200814 4.991305,-0.762388 1.848195,0.709218 1.825881,1.074957 -0.202316,3.316089 -1.253791,1.385423 -3.735463,2.884345 -5.514825,3.330936 -1.779363,0.446597 -3.235206,1.40056 -3.235206,2.119922 0,0.719361 -2.733823,1.30793 -6.075161,1.30793 -5.100563,0 -6.684338,-0.666962 -9.872462,-4.157512 z m 5.451029,-8.842488 c 1.658495,-2.114742 1.611335,-2.161902 -0.503406,-0.503407 -1.283334,1.006459 -2.333334,2.056459 -2.333334,2.333334 0,1.097378 1.094915,0.39107 2.83674,-1.829927 z m 41.825498,-9.659498 c 0.450786,-0.729389 2.136197,-2.016695 3.745356,-2.860679 2.905425,-1.52386 2.908104,-1.51465 0.385757,1.326164 -2.544687,2.865977 -5.671924,4.027599 -4.131113,1.534515 z"
       id="path4211"
       inkscape:connector-curvature="0" />
    <path
       style="fill:#ee754a;stroke-width:1.33333337"
       d="M 20.052378,57.175823 C 17.963862,54.889191 15.64573,53.394908 14.900971,53.855194 14.156214,54.315479 12.298822,53.105444 10.773434,51.166227 7.8909584,47.501753 7.1489132,40.743156 9.26229,37.402632 c 0.801168,-1.266372 0.974147,-0.08688 0.5027167,3.427896 -0.5135713,3.82896 -0.1249813,5.952356 1.3613023,7.438639 1.144022,1.144023 1.658612,2.547665 1.143533,3.119205 -0.51508,0.57154 -0.266974,0.657288 0.551346,0.190552 0.818319,-0.466736 1.188156,-2.416374 0.82186,-4.332531 -0.576659,-3.016601 -0.23969,-3.448193 2.512146,-3.217569 9.073268,0.760411 11.789304,-2.389527 8.613711,-9.989792 -1.834674,-4.390991 -1.790124,-4.778912 0.701988,-6.11265 6.790283,-3.634049 13.396519,1.361858 8.68504,6.567983 -1.25024,1.381499 -1.827841,3.731727 -1.450204,5.900795 0.345183,1.982663 0.905652,5.202888 1.245487,7.156056 0.879069,5.052366 2.570492,6.310312 6.009827,4.469635 1.6027,-0.857739 3.848788,-1.200813 4.991305,-0.762388 1.848195,0.709219 1.825881,1.074957 -0.202316,3.316089 -1.253791,1.385423 -3.735463,2.884346 -5.514825,3.330936 -1.779363,0.446592 -3.235206,1.400555 -3.235206,2.119917 0,0.719361 -2.733823,1.30793 -6.075161,1.30793 -5.100563,0 -6.684338,-0.666962 -9.872462,-4.157512 z m 5.451029,-8.842488 c 1.658495,-2.114742 1.611335,-2.161902 -0.503406,-0.503407 -1.283334,1.006459 -2.333334,2.056459 -2.333334,2.333334 0,1.097378 1.094915,0.39107 2.83674,-1.829927 z m 41.825498,-9.659498 c 0.450786,-0.729389 2.136197,-2.016695 3.745356,-2.860679 2.905425,-1.52386 2.908104,-1.51465 0.385757,1.326164 -2.544687,2.865977 -5.671924,4.027599 -4.131113,1.534515 z"
       id="path4209"
       inkscape:connector-curvature="0" />
    <path
       style="fill:#ed7b43;stroke-width:1.33333337"
       d="m 19.045182,55.926127 c -5.458203,-4.440045 -6.533194,-6.003307 -6.010065,-8.739884 0.46027,-2.407747 1.422659,-3.271396 3.467649,-3.111871 8.729331,0.680953 11.392691,-2.552447 8.266139,-10.03534 -1.834674,-4.390991 -1.790124,-4.778912 0.701988,-6.11265 6.790283,-3.634049 13.396519,1.361858 8.68504,6.567983 -1.328072,1.467503 -1.82954,3.716971 -1.38976,6.234128 0.378428,2.165996 0.938897,5.386222 1.245488,7.156056 0.818024,4.722159 2.573799,5.942859 5.949382,4.136302 1.6027,-0.857739 3.848788,-1.200813 4.991305,-0.762388 1.848195,0.709219 1.825881,1.074957 -0.202316,3.316089 -1.253791,1.385423 -3.735463,2.884346 -5.514825,3.330936 -1.779363,0.446592 -3.235206,1.400555 -3.235206,2.119917 0,0.719361 -2.319227,1.30793 -5.153836,1.30793 -4.042935,0 -6.58662,-1.165516 -11.800983,-5.407208 z m 7.108576,-7.372461 c 0.235741,-1.606211 -0.09756,-1.706869 -1.579468,-0.476999 -1.033044,0.857351 -1.524787,2.130755 -1.092761,2.829785 0.959268,1.552128 2.268262,0.399614 2.672229,-2.352786 z"
       id="path4207"
       inkscape:connector-curvature="0" />
    <path
       style="fill:#ed823a;stroke-width:1.33333337"
       d="m 19.242101,55.166407 c -6.571506,-6.858623 -7.788719,-11.509528 -2.908767,-11.114239 8.896153,0.720615 11.586231,-2.472544 8.435571,-10.013136 -1.834674,-4.390991 -1.790124,-4.778912 0.701988,-6.11265 3.924205,-2.100172 9.7532,-1.048505 10.305047,1.859234 0.255973,1.348754 -0.90095,3.906701 -2.57094,5.684325 -2.342779,2.493774 -2.674907,3.593486 -1.454007,4.814386 0.870288,0.870288 1.582341,3.147664 1.582341,5.060834 0,1.913172 0.797499,4.569139 1.77222,5.90215 1.492144,2.040629 2.246115,2.170035 4.770855,0.818835 1.649248,-0.882651 3.919324,-1.251518 5.044612,-0.819704 2.901027,1.113228 0.313912,3.917856 -6.783213,7.353516 -8.784171,4.252344 -12.110727,3.647873 -18.895707,-3.433551 z m 8.000933,-7.164991 c 2.173422,-7.660667 2.129472,-8.611848 -0.207502,-4.490877 -1.302875,2.297461 -3.164281,5.492877 -4.136457,7.100925 -1.644458,2.720051 -1.581088,2.823907 0.909702,1.490878 1.47251,-0.788064 3.017927,-2.63348 3.434257,-4.100926 z"
       id="path4205"
       inkscape:connector-curvature="0" />
    <path
       style="fill:#ec7c3b;stroke-width:1.33333337"
       d="m 23.666638,59.893187 c -1.283349,-0.747482 -3.258903,-3.148855 -4.390117,-5.336384 -1.131215,-2.187528 -2.503918,-3.700963 -3.05045,-3.363188 -0.546532,0.337776 -1.108941,-0.778368 -1.249799,-2.48032 -0.218021,-2.63429 0.483451,-3.186683 4.717145,-3.714647 6.36382,-0.793601 6.750657,-0.352845 3.100456,3.532616 -3.81469,4.060551 -1.331231,6.006096 2.62132,2.053546 1.847791,-1.847791 2.633779,-3.954857 2.241241,-6.008283 -0.332501,-1.739371 -0.09123,-2.84524 0.536176,-2.457487 1.631091,1.008069 1.454912,0.328567 -1.438366,-5.547624 -2.552041,-5.183146 -2.551846,-5.265855 0.01853,-7.88624 2.00062,-2.039545 3.111383,-2.324086 4.833065,-1.238076 3.041203,1.918341 3.513992,3.890828 1.453687,6.064806 -2.257011,2.381531 -2.822448,6.065218 -1.094888,7.132909 0.752781,0.465244 1.368693,3.529318 1.368693,6.809056 0,6.667283 2.48216,8.802161 6.973126,5.997508 1.440937,-0.89988 3.010515,-1.245516 3.487949,-0.76808 1.022872,1.022872 -3.584445,4.650036 -5.906596,4.650036 -0.88138,0 -1.947871,0.9 -2.36998,2 -0.884805,2.305764 -8.255809,2.653971 -11.851195,0.559852 z"
       id="path4203"
       inkscape:connector-curvature="0" />
    <path
       style="fill:#ea7344;stroke-width:1.33333337"
       d="m 22.963342,59.25773 c -3.871436,-2.711659 -3.753633,-5.136274 0.340176,-7.001538 2.352136,-1.071705 3.74359,-3.252869 4.831596,-7.573735 1.284204,-5.100034 1.83907,-5.81045 3.476691,-4.451346 1.238717,1.028044 1.722533,3.102065 1.328044,5.693048 -1.093499,7.182033 3.779448,11.48988 8.104596,7.164732 0.867779,-0.867779 2.036835,-1.118721 2.597904,-0.557652 3.030348,3.030348 -11.611852,7.628614 -15.854561,4.978997 -1.474885,-0.921081 -2.454454,-1.006329 -2.454454,-0.213602 0,0.725576 1.65,1.683143 3.666667,2.127927 6.214527,1.370637 6.507105,1.694358 1.630008,1.803512 -2.586828,0.05789 -6.036828,-0.82876 -7.666667,-1.970343 z m -6.696675,-8.857728 c -2.877441,-2.877442 -1.689359,-4.763778 3.4,-5.398231 6.42903,-0.801459 6.785524,-0.364608 2.995062,3.670155 -3.55662,3.785848 -4.171214,3.951924 -6.395062,1.728076 z m 9.45696,-15.780605 c -1.178517,-3.122249 -1.02511,-4.171577 0.859164,-5.876823 2.827019,-2.558417 4.634662,-2.625388 6.610287,-0.244904 1.903722,2.293843 0.902831,4.8636 -3.003921,7.712487 -2.930493,2.136978 -3.078347,2.084307 -4.46553,-1.59076 z"
       id="path4201"
       inkscape:connector-curvature="0" />
    <path
       style="fill:#ec8132;stroke-width:1.33333337"
       d="m 23.666667,59.893203 c -3.337314,-1.943807 -2.935336,-3.57032 2.320002,-9.387351 l 4.653335,-5.150685 1.945296,4.655751 c 2.014364,4.821053 5.461705,6.075413 8.459145,3.077973 0.867779,-0.867779 2.036835,-1.118721 2.597904,-0.557652 2.996379,2.996379 -11.602272,7.634596 -15.792748,5.0176 -1.449772,-0.905397 -2.698436,-0.999436 -3.168638,-0.238635 -0.4268,0.690576 1.195384,1.824177 3.604853,2.519111 3.799926,1.095968 3.938833,1.274088 1.047518,1.343224 -1.833333,0.04384 -4.383333,-0.531862 -5.666667,-1.279336 z m -7.4,-9.493201 c -2.877441,-2.877442 -1.689359,-4.763778 3.4,-5.398231 6.42903,-0.801459 6.785524,-0.364608 2.995062,3.670155 -3.55662,3.785848 -4.171214,3.951924 -6.395062,1.728076 z m 9.45696,-15.780605 c -1.178517,-3.122249 -1.02511,-4.171577 0.859164,-5.876823 2.827019,-2.558417 4.634662,-2.625388 6.610287,-0.244904 1.903722,2.293843 0.902831,4.8636 -3.003921,7.712487 -2.930493,2.136978 -3.078347,2.084307 -4.46553,-1.59076 z"
       id="path4199"
       inkscape:connector-curvature="0" />
    <path
       style="fill:#eb6d44;stroke-width:1.33333337"
       d="m 23.666667,59.893203 c -3.342,-1.946536 -2.935346,-3.570309 2.36281,-9.434733 4.611123,-5.103963 4.717073,-5.143097 5.85232,-2.161602 0.812953,2.135056 0.567521,3.704202 -0.826757,5.285783 -1.090615,1.237123 -1.588748,2.887123 -1.106964,3.666667 1.14685,1.855644 -1.000559,1.831533 -2.864251,-0.03216 -1.004183,-1.004183 -1.715162,-1.019678 -2.314186,-0.05044 -0.495296,0.801405 1.006776,1.938835 3.516177,2.662592 3.799926,1.095968 3.938833,1.274088 1.047518,1.343224 -1.833333,0.04384 -4.383333,-0.531863 -5.666667,-1.279336 z"
       id="path4197"
       inkscape:connector-curvature="0" />
    <path
       style="fill:#eb7d33;stroke-width:1.33333337"
       d="m 27.369324,57.391567 c -0.433431,-0.701305 -1.608151,-0.960401 -2.610489,-0.575768 -3.91862,1.503715 -3.012437,-1.811832 1.473498,-5.391243 3.736359,-2.98131 4.9631,-3.393038 5.847229,-1.962488 0.695271,1.124971 0.337766,2.673467 -0.944296,4.09013 -1.13474,1.253873 -1.668974,2.917576 -1.18719,3.69712 0.481784,0.779542 0.27597,1.41735 -0.457363,1.41735 -0.733333,0 -1.687959,-0.573796 -2.121389,-1.275101 z"
       id="path4195"
       inkscape:connector-curvature="0" />
    <path
       style="fill:#e46b42;stroke-width:1.33333337"
       d="m 22.164007,56.265371 c -0.606816,-0.981849 7.410505,-8.265369 9.098089,-8.265369 1.757317,0 0.485897,3.039886 -2.534822,6.060606 -3.375832,3.375831 -5.415951,4.061158 -6.563267,2.204763 z"
       id="path4193"
       inkscape:connector-curvature="0" />
    <path
       style="fill:#e36d3c;stroke-width:1.33333337"
       d="m 24.073773,56.380247 c 0.04057,-0.575801 1.922356,-2.510275 4.181735,-4.298831 3.914585,-3.098838 4.035204,-3.115968 2.562336,-0.36389 -1.562446,2.919457 -6.880311,6.596128 -6.744071,4.662721 z"
       id="path4191"
       inkscape:connector-curvature="0" />
  </g>
</svg>
